ISO-10303-21;
HEADER;
FILE_DESCRIPTION(('FreeCAD Model'),'2;1');
FILE_NAME('Open CASCADE Shape Model','2025-11-30T11:17:09',(''),(''),
  'Open CASCADE STEP processor 7.8','FreeCAD','Unknown');
FILE_SCHEMA((
'AP242_MANAGED_MODEL_BASED_3D_ENGINEERING_MIM_LF. {1 0 10303 442 1 1 4 
}'));
ENDSEC;
DATA;
#1 = APPLICATION_PROTOCOL_DEFINITION('international standard',
  'ap242_managed_model_based_3d_engineering',2013,#2);
#2 = APPLICATION_CONTEXT('Managed model based 3d engineering');
#3 = SHAPE_DEFINITION_REPRESENTATION(#4,#10);
#4 = PRODUCT_DEFINITION_SHAPE('','',#5);
#5 = PRODUCT_DEFINITION('design','',#6,#9);
#6 = PRODUCT_DEFINITION_FORMATION('','',#7);
#7 = PRODUCT('Jumper_2.54p','Jumper_2.54p','',(#8));
#8 = PRODUCT_CONTEXT('',#2,'mechanical');
#9 = PRODUCT_DEFINITION_CONTEXT('part definition',#2,'design');
#10 = ADVANCED_BREP_SHAPE_REPRESENTATION('',(#11,#15),#987);
#11 = AXIS2_PLACEMENT_3D('',#12,#13,#14);
#12 = CARTESIAN_POINT('',(0.,0.,0.));
#13 = DIRECTION('',(0.,0.,1.));
#14 = DIRECTION('',(1.,0.,-0.));
#15 = MANIFOLD_SOLID_BREP('',#16);
#16 = CLOSED_SHELL('',(#17,#91,#122,#249,#280,#375,#397,#419,#450,#474,
    #498,#515,#527,#544,#561,#578,#595,#612,#629,#646,#663,#675,#721,
    #752,#776,#800,#817,#863,#894,#918,#942,#959,#971));
#17 = ADVANCED_FACE('',(#18,#52),#86,.F.);
#18 = FACE_BOUND('',#19,.T.);
#19 = EDGE_LOOP('',(#20,#30,#38,#46));
#20 = ORIENTED_EDGE('',*,*,#21,.T.);
#21 = EDGE_CURVE('',#22,#24,#26,.T.);
#22 = VERTEX_POINT('',#23);
#23 = CARTESIAN_POINT('',(-1.23,-1.2,0.));
#24 = VERTEX_POINT('',#25);
#25 = CARTESIAN_POINT('',(-1.23,1.2,-5.329070518201E-16));
#26 = LINE('',#27,#28);
#27 = CARTESIAN_POINT('',(-1.23,-1.2,-1.133987551255E-32));
#28 = VECTOR('',#29,1.);
#29 = DIRECTION('',(2.22044604925E-16,1.,-2.22044604925E-16));
#30 = ORIENTED_EDGE('',*,*,#31,.T.);
#31 = EDGE_CURVE('',#24,#32,#34,.T.);
#32 = VERTEX_POINT('',#33);
#33 = CARTESIAN_POINT('',(3.77,1.2,-5.329070518201E-16));
#34 = LINE('',#35,#36);
#35 = CARTESIAN_POINT('',(-1.23,1.2,-5.329070518201E-16));
#36 = VECTOR('',#37,1.);
#37 = DIRECTION('',(1.,-3.330669073875E-16,7.395570986447E-32));
#38 = ORIENTED_EDGE('',*,*,#39,.T.);
#39 = EDGE_CURVE('',#32,#40,#42,.T.);
#40 = VERTEX_POINT('',#41);
#41 = CARTESIAN_POINT('',(3.77,-1.2,2.157041537714E-31));
#42 = LINE('',#43,#44);
#43 = CARTESIAN_POINT('',(3.77,1.2,-5.329070518201E-16));
#44 = VECTOR('',#45,1.);
#45 = DIRECTION('',(-2.22044604925E-16,-1.,2.22044604925E-16));
#46 = ORIENTED_EDGE('',*,*,#47,.T.);
#47 = EDGE_CURVE('',#40,#22,#48,.T.);
#48 = LINE('',#49,#50);
#49 = CARTESIAN_POINT('',(3.77,-1.2,1.858753507927E-31));
#50 = VECTOR('',#51,1.);
#51 = DIRECTION('',(-1.,1.942890293094E-16,-4.314083075427E-32));
#52 = FACE_BOUND('',#53,.T.);
#53 = EDGE_LOOP('',(#54,#64,#72,#80));
#54 = ORIENTED_EDGE('',*,*,#55,.T.);
#55 = EDGE_CURVE('',#56,#58,#60,.T.);
#56 = VERTEX_POINT('',#57);
#57 = CARTESIAN_POINT('',(3.27,0.7,-4.218847493576E-16));
#58 = VERTEX_POINT('',#59);
#59 = CARTESIAN_POINT('',(-0.73,0.7,-4.218847493576E-16));
#60 = LINE('',#61,#62);
#61 = CARTESIAN_POINT('',(2.27,0.7,-4.218847493576E-16));
#62 = VECTOR('',#63,1.);
#63 = DIRECTION('',(-1.,5.689893001204E-16,-1.263410043518E-31));
#64 = ORIENTED_EDGE('',*,*,#65,.T.);
#65 = EDGE_CURVE('',#58,#66,#68,.T.);
#66 = VERTEX_POINT('',#67);
#67 = CARTESIAN_POINT('',(-0.73,-0.7,-1.110223024625E-16));
#68 = LINE('',#69,#70);
#69 = CARTESIAN_POINT('',(-0.73,0.35,-3.441691376338E-16));
#70 = VECTOR('',#71,1.);
#71 = DIRECTION('',(-2.22044604925E-16,-1.,2.22044604925E-16));
#72 = ORIENTED_EDGE('',*,*,#73,.T.);
#73 = EDGE_CURVE('',#66,#74,#76,.T.);
#74 = VERTEX_POINT('',#75);
#75 = CARTESIAN_POINT('',(3.27,-0.7,-1.110223024625E-16));
#76 = LINE('',#77,#78);
#77 = CARTESIAN_POINT('',(0.27,-0.7,-1.110223024625E-16));
#78 = VECTOR('',#79,1.);
#79 = DIRECTION('',(1.,-6.383782391595E-16,1.417484439069E-31));
#80 = ORIENTED_EDGE('',*,*,#81,.T.);
#81 = EDGE_CURVE('',#74,#56,#82,.T.);
#82 = LINE('',#83,#84);
#83 = CARTESIAN_POINT('',(3.27,-0.35,-1.887379141863E-16));
#84 = VECTOR('',#85,1.);
#85 = DIRECTION('',(1.015061051086E-15,1.,-2.22044604925E-16));
#86 = PLANE('',#87);
#87 = AXIS2_PLACEMENT_3D('',#88,#89,#90);
#88 = CARTESIAN_POINT('',(1.27,-5.040412531798E-16,-2.6645352591E-16));
#89 = DIRECTION('',(0.,2.22044604925E-16,1.));
#90 = DIRECTION('',(-1.,2.22044604925E-16,-4.93038065763E-32));
#91 = ADVANCED_FACE('',(#92),#117,.F.);
#92 = FACE_BOUND('',#93,.T.);
#93 = EDGE_LOOP('',(#94,#95,#103,#111));
#94 = ORIENTED_EDGE('',*,*,#65,.F.);
#95 = ORIENTED_EDGE('',*,*,#96,.T.);
#96 = EDGE_CURVE('',#58,#97,#99,.T.);
#97 = VERTEX_POINT('',#98);
#98 = CARTESIAN_POINT('',(-0.73,0.7,0.2));
#99 = LINE('',#100,#101);
#100 = CARTESIAN_POINT('',(-0.73,0.7,-4.218847493576E-16));
#101 = VECTOR('',#102,1.);
#102 = DIRECTION('',(0.,2.22044604925E-16,1.));
#103 = ORIENTED_EDGE('',*,*,#104,.T.);
#104 = EDGE_CURVE('',#97,#105,#107,.T.);
#105 = VERTEX_POINT('',#106);
#106 = CARTESIAN_POINT('',(-0.73,-0.7,0.2));
#107 = LINE('',#108,#109);
#108 = CARTESIAN_POINT('',(-0.73,-0.7,0.2));
#109 = VECTOR('',#110,1.);
#110 = DIRECTION('',(-2.22044604925E-16,-1.,2.22044604925E-16));
#111 = ORIENTED_EDGE('',*,*,#112,.F.);
#112 = EDGE_CURVE('',#66,#105,#113,.T.);
#113 = LINE('',#114,#115);
#114 = CARTESIAN_POINT('',(-0.73,-0.7,-1.110223024625E-16));
#115 = VECTOR('',#116,1.);
#116 = DIRECTION('',(0.,2.22044604925E-16,1.));
#117 = PLANE('',#118);
#118 = AXIS2_PLACEMENT_3D('',#119,#120,#121);
#119 = CARTESIAN_POINT('',(-0.73,0.7,-4.218847493576E-16));
#120 = DIRECTION('',(-1.,2.22044604925E-16,-4.930380657631E-32));
#121 = DIRECTION('',(-2.22044604925E-16,-1.,2.22044604925E-16));
#122 = ADVANCED_FACE('',(#123),#244,.F.);
#123 = FACE_BOUND('',#124,.F.);
#124 = EDGE_LOOP('',(#125,#135,#143,#151,#157,#158,#166,#174,#182,#190,
    #198,#206,#214,#222,#230,#238));
#125 = ORIENTED_EDGE('',*,*,#126,.F.);
#126 = EDGE_CURVE('',#127,#129,#131,.T.);
#127 = VERTEX_POINT('',#128);
#128 = CARTESIAN_POINT('',(1.81,-0.7,0.2));
#129 = VERTEX_POINT('',#130);
#130 = CARTESIAN_POINT('',(1.81,0.,0.2));
#131 = LINE('',#132,#133);
#132 = CARTESIAN_POINT('',(1.81,-0.35,0.2));
#133 = VECTOR('',#134,1.);
#134 = DIRECTION('',(0.,1.,-2.22044604925E-16));
#135 = ORIENTED_EDGE('',*,*,#136,.T.);
#136 = EDGE_CURVE('',#127,#137,#139,.T.);
#137 = VERTEX_POINT('',#138);
#138 = CARTESIAN_POINT('',(3.27,-0.7,0.2));
#139 = LINE('',#140,#141);
#140 = CARTESIAN_POINT('',(3.27,-0.7,0.2));
#141 = VECTOR('',#142,1.);
#142 = DIRECTION('',(1.,-6.383782391595E-16,1.417484439069E-31));
#143 = ORIENTED_EDGE('',*,*,#144,.T.);
#144 = EDGE_CURVE('',#137,#145,#147,.T.);
#145 = VERTEX_POINT('',#146);
#146 = CARTESIAN_POINT('',(3.27,0.7,0.2));
#147 = LINE('',#148,#149);
#148 = CARTESIAN_POINT('',(3.27,0.7,0.2));
#149 = VECTOR('',#150,1.);
#150 = DIRECTION('',(1.015061051086E-15,1.,-2.22044604925E-16));
#151 = ORIENTED_EDGE('',*,*,#152,.T.);
#152 = EDGE_CURVE('',#145,#97,#153,.T.);
#153 = LINE('',#154,#155);
#154 = CARTESIAN_POINT('',(-0.73,0.7,0.2));
#155 = VECTOR('',#156,1.);
#156 = DIRECTION('',(-1.,5.689893001204E-16,-1.263410043518E-31));
#157 = ORIENTED_EDGE('',*,*,#104,.T.);
#158 = ORIENTED_EDGE('',*,*,#159,.T.);
#159 = EDGE_CURVE('',#105,#160,#162,.T.);
#160 = VERTEX_POINT('',#161);
#161 = CARTESIAN_POINT('',(0.73,-0.7,0.2));
#162 = LINE('',#163,#164);
#163 = CARTESIAN_POINT('',(3.27,-0.7,0.2));
#164 = VECTOR('',#165,1.);
#165 = DIRECTION('',(1.,-6.383782391595E-16,1.417484439069E-31));
#166 = ORIENTED_EDGE('',*,*,#167,.T.);
#167 = EDGE_CURVE('',#160,#168,#170,.T.);
#168 = VERTEX_POINT('',#169);
#169 = CARTESIAN_POINT('',(0.73,0.,0.2));
#170 = LINE('',#171,#172);
#171 = CARTESIAN_POINT('',(0.73,-0.35,0.2));
#172 = VECTOR('',#173,1.);
#173 = DIRECTION('',(0.,1.,-2.22044604925E-16));
#174 = ORIENTED_EDGE('',*,*,#175,.T.);
#175 = EDGE_CURVE('',#168,#176,#178,.T.);
#176 = VERTEX_POINT('',#177);
#177 = CARTESIAN_POINT('',(0.4,0.,0.2));
#178 = LINE('',#179,#180);
#179 = CARTESIAN_POINT('',(0.635,0.,0.2));
#180 = VECTOR('',#181,1.);
#181 = DIRECTION('',(-1.,0.,0.));
#182 = ORIENTED_EDGE('',*,*,#183,.F.);
#183 = EDGE_CURVE('',#184,#176,#186,.T.);
#184 = VERTEX_POINT('',#185);
#185 = CARTESIAN_POINT('',(0.4,-0.4,0.2));
#186 = LINE('',#187,#188);
#187 = CARTESIAN_POINT('',(0.4,-0.2,0.2));
#188 = VECTOR('',#189,1.);
#189 = DIRECTION('',(0.,1.,-2.22044604925E-16));
#190 = ORIENTED_EDGE('',*,*,#191,.T.);
#191 = EDGE_CURVE('',#184,#192,#194,.T.);
#192 = VERTEX_POINT('',#193);
#193 = CARTESIAN_POINT('',(-0.4,-0.4,0.2));
#194 = LINE('',#195,#196);
#195 = CARTESIAN_POINT('',(0.435,-0.4,0.2));
#196 = VECTOR('',#197,1.);
#197 = DIRECTION('',(-1.,0.,0.));
#198 = ORIENTED_EDGE('',*,*,#199,.T.);
#199 = EDGE_CURVE('',#192,#200,#202,.T.);
#200 = VERTEX_POINT('',#201);
#201 = CARTESIAN_POINT('',(-0.4,0.4,0.2));
#202 = LINE('',#203,#204);
#203 = CARTESIAN_POINT('',(-0.4,-0.2,0.2));
#204 = VECTOR('',#205,1.);
#205 = DIRECTION('',(0.,1.,-2.22044604925E-16));
#206 = ORIENTED_EDGE('',*,*,#207,.F.);
#207 = EDGE_CURVE('',#208,#200,#210,.T.);
#208 = VERTEX_POINT('',#209);
#209 = CARTESIAN_POINT('',(2.94,0.4,0.2));
#210 = LINE('',#211,#212);
#211 = CARTESIAN_POINT('',(1.27,0.4,0.2));
#212 = VECTOR('',#213,1.);
#213 = DIRECTION('',(-1.,0.,0.));
#214 = ORIENTED_EDGE('',*,*,#215,.F.);
#215 = EDGE_CURVE('',#216,#208,#218,.T.);
#216 = VERTEX_POINT('',#217);
#217 = CARTESIAN_POINT('',(2.94,-0.4,0.2));
#218 = LINE('',#219,#220);
#219 = CARTESIAN_POINT('',(2.94,-0.2,0.2));
#220 = VECTOR('',#221,1.);
#221 = DIRECTION('',(0.,1.,-2.22044604925E-16));
#222 = ORIENTED_EDGE('',*,*,#223,.T.);
#223 = EDGE_CURVE('',#216,#224,#226,.T.);
#224 = VERTEX_POINT('',#225);
#225 = CARTESIAN_POINT('',(2.14,-0.4,0.2));
#226 = LINE('',#227,#228);
#227 = CARTESIAN_POINT('',(1.705,-0.4,0.2));
#228 = VECTOR('',#229,1.);
#229 = DIRECTION('',(-1.,0.,0.));
#230 = ORIENTED_EDGE('',*,*,#231,.T.);
#231 = EDGE_CURVE('',#224,#232,#234,.T.);
#232 = VERTEX_POINT('',#233);
#233 = CARTESIAN_POINT('',(2.14,0.,0.2));
#234 = LINE('',#235,#236);
#235 = CARTESIAN_POINT('',(2.14,-0.2,0.2));
#236 = VECTOR('',#237,1.);
#237 = DIRECTION('',(0.,1.,-2.22044604925E-16));
#238 = ORIENTED_EDGE('',*,*,#239,.T.);
#239 = EDGE_CURVE('',#232,#129,#240,.T.);
#240 = LINE('',#241,#242);
#241 = CARTESIAN_POINT('',(0.635,0.,0.2));
#242 = VECTOR('',#243,1.);
#243 = DIRECTION('',(-1.,0.,0.));
#244 = PLANE('',#245);
#245 = AXIS2_PLACEMENT_3D('',#246,#247,#248);
#246 = CARTESIAN_POINT('',(1.27,-4.596323321948E-16,0.2));
#247 = DIRECTION('',(0.,2.22044604925E-16,1.));
#248 = DIRECTION('',(-1.,2.22044604925E-16,-4.93038065763E-32));
#249 = ADVANCED_FACE('',(#250),#275,.F.);
#250 = FACE_BOUND('',#251,.F.);
#251 = EDGE_LOOP('',(#252,#262,#268,#269));
#252 = ORIENTED_EDGE('',*,*,#253,.F.);
#253 = EDGE_CURVE('',#254,#256,#258,.T.);
#254 = VERTEX_POINT('',#255);
#255 = CARTESIAN_POINT('',(1.81,-0.7,6.01));
#256 = VERTEX_POINT('',#257);
#257 = CARTESIAN_POINT('',(1.81,0.,6.01));
#258 = LINE('',#259,#260);
#259 = CARTESIAN_POINT('',(1.81,-0.7,6.01));
#260 = VECTOR('',#261,1.);
#261 = DIRECTION('',(0.,1.,0.));
#262 = ORIENTED_EDGE('',*,*,#263,.F.);
#263 = EDGE_CURVE('',#127,#254,#264,.T.);
#264 = LINE('',#265,#266);
#265 = CARTESIAN_POINT('',(1.81,-0.7,0.));
#266 = VECTOR('',#267,1.);
#267 = DIRECTION('',(0.,0.,1.));
#268 = ORIENTED_EDGE('',*,*,#126,.T.);
#269 = ORIENTED_EDGE('',*,*,#270,.T.);
#270 = EDGE_CURVE('',#129,#256,#271,.T.);
#271 = LINE('',#272,#273);
#272 = CARTESIAN_POINT('',(1.81,0.,0.));
#273 = VECTOR('',#274,1.);
#274 = DIRECTION('',(0.,0.,1.));
#275 = PLANE('',#276);
#276 = AXIS2_PLACEMENT_3D('',#277,#278,#279);
#277 = CARTESIAN_POINT('',(1.81,-0.7,0.));
#278 = DIRECTION('',(1.,0.,0.));
#279 = DIRECTION('',(0.,0.,1.));
#280 = ADVANCED_FACE('',(#281),#370,.F.);
#281 = FACE_BOUND('',#282,.F.);
#282 = EDGE_LOOP('',(#283,#293,#299,#300,#308,#316,#324,#332,#340,#348,
    #356,#364));
#283 = ORIENTED_EDGE('',*,*,#284,.F.);
#284 = EDGE_CURVE('',#285,#287,#289,.T.);
#285 = VERTEX_POINT('',#286);
#286 = CARTESIAN_POINT('',(0.73,-0.7,6.01));
#287 = VERTEX_POINT('',#288);
#288 = CARTESIAN_POINT('',(0.73,0.,6.01));
#289 = LINE('',#290,#291);
#290 = CARTESIAN_POINT('',(0.73,-0.7,6.01));
#291 = VECTOR('',#292,1.);
#292 = DIRECTION('',(0.,1.,0.));
#293 = ORIENTED_EDGE('',*,*,#294,.T.);
#294 = EDGE_CURVE('',#285,#254,#295,.T.);
#295 = LINE('',#296,#297);
#296 = CARTESIAN_POINT('',(0.73,-0.7,6.01));
#297 = VECTOR('',#298,1.);
#298 = DIRECTION('',(1.,0.,0.));
#299 = ORIENTED_EDGE('',*,*,#253,.T.);
#300 = ORIENTED_EDGE('',*,*,#301,.T.);
#301 = EDGE_CURVE('',#256,#302,#304,.T.);
#302 = VERTEX_POINT('',#303);
#303 = CARTESIAN_POINT('',(2.14,0.,6.01));
#304 = LINE('',#305,#306);
#305 = CARTESIAN_POINT('',(0.,0.,6.01));
#306 = VECTOR('',#307,1.);
#307 = DIRECTION('',(1.,0.,0.));
#308 = ORIENTED_EDGE('',*,*,#309,.F.);
#309 = EDGE_CURVE('',#310,#302,#312,.T.);
#310 = VERTEX_POINT('',#311);
#311 = CARTESIAN_POINT('',(2.14,-0.4,6.01));
#312 = LINE('',#313,#314);
#313 = CARTESIAN_POINT('',(2.14,-0.4,6.01));
#314 = VECTOR('',#315,1.);
#315 = DIRECTION('',(0.,1.,0.));
#316 = ORIENTED_EDGE('',*,*,#317,.T.);
#317 = EDGE_CURVE('',#310,#318,#320,.T.);
#318 = VERTEX_POINT('',#319);
#319 = CARTESIAN_POINT('',(2.94,-0.4,6.01));
#320 = LINE('',#321,#322);
#321 = CARTESIAN_POINT('',(2.14,-0.4,6.01));
#322 = VECTOR('',#323,1.);
#323 = DIRECTION('',(1.,0.,0.));
#324 = ORIENTED_EDGE('',*,*,#325,.T.);
#325 = EDGE_CURVE('',#318,#326,#328,.T.);
#326 = VERTEX_POINT('',#327);
#327 = CARTESIAN_POINT('',(2.94,0.4,6.01));
#328 = LINE('',#329,#330);
#329 = CARTESIAN_POINT('',(2.94,-0.4,6.01));
#330 = VECTOR('',#331,1.);
#331 = DIRECTION('',(0.,1.,0.));
#332 = ORIENTED_EDGE('',*,*,#333,.F.);
#333 = EDGE_CURVE('',#334,#326,#336,.T.);
#334 = VERTEX_POINT('',#335);
#335 = CARTESIAN_POINT('',(-0.4,0.4,6.01));
#336 = LINE('',#337,#338);
#337 = CARTESIAN_POINT('',(2.14,0.4,6.01));
#338 = VECTOR('',#339,1.);
#339 = DIRECTION('',(1.,0.,0.));
#340 = ORIENTED_EDGE('',*,*,#341,.F.);
#341 = EDGE_CURVE('',#342,#334,#344,.T.);
#342 = VERTEX_POINT('',#343);
#343 = CARTESIAN_POINT('',(-0.4,-0.4,6.01));
#344 = LINE('',#345,#346);
#345 = CARTESIAN_POINT('',(-0.4,-0.4,6.01));
#346 = VECTOR('',#347,1.);
#347 = DIRECTION('',(0.,1.,0.));
#348 = ORIENTED_EDGE('',*,*,#349,.T.);
#349 = EDGE_CURVE('',#342,#350,#352,.T.);
#350 = VERTEX_POINT('',#351);
#351 = CARTESIAN_POINT('',(0.4,-0.4,6.01));
#352 = LINE('',#353,#354);
#353 = CARTESIAN_POINT('',(-0.4,-0.4,6.01));
#354 = VECTOR('',#355,1.);
#355 = DIRECTION('',(1.,0.,0.));
#356 = ORIENTED_EDGE('',*,*,#357,.T.);
#357 = EDGE_CURVE('',#350,#358,#360,.T.);
#358 = VERTEX_POINT('',#359);
#359 = CARTESIAN_POINT('',(0.4,0.,6.01));
#360 = LINE('',#361,#362);
#361 = CARTESIAN_POINT('',(0.4,-0.4,6.01));
#362 = VECTOR('',#363,1.);
#363 = DIRECTION('',(0.,1.,0.));
#364 = ORIENTED_EDGE('',*,*,#365,.T.);
#365 = EDGE_CURVE('',#358,#287,#366,.T.);
#366 = LINE('',#367,#368);
#367 = CARTESIAN_POINT('',(0.,0.,6.01));
#368 = VECTOR('',#369,1.);
#369 = DIRECTION('',(1.,0.,0.));
#370 = PLANE('',#371);
#371 = AXIS2_PLACEMENT_3D('',#372,#373,#374);
#372 = CARTESIAN_POINT('',(1.27,-6.774809160305E-02,6.01));
#373 = DIRECTION('',(0.,0.,1.));
#374 = DIRECTION('',(1.,0.,0.));
#375 = ADVANCED_FACE('',(#376),#392,.T.);
#376 = FACE_BOUND('',#377,.T.);
#377 = EDGE_LOOP('',(#378,#379,#385,#386));
#378 = ORIENTED_EDGE('',*,*,#284,.F.);
#379 = ORIENTED_EDGE('',*,*,#380,.F.);
#380 = EDGE_CURVE('',#160,#285,#381,.T.);
#381 = LINE('',#382,#383);
#382 = CARTESIAN_POINT('',(0.73,-0.7,0.));
#383 = VECTOR('',#384,1.);
#384 = DIRECTION('',(0.,0.,1.));
#385 = ORIENTED_EDGE('',*,*,#167,.T.);
#386 = ORIENTED_EDGE('',*,*,#387,.T.);
#387 = EDGE_CURVE('',#168,#287,#388,.T.);
#388 = LINE('',#389,#390);
#389 = CARTESIAN_POINT('',(0.73,0.,0.));
#390 = VECTOR('',#391,1.);
#391 = DIRECTION('',(0.,0.,1.));
#392 = PLANE('',#393);
#393 = AXIS2_PLACEMENT_3D('',#394,#395,#396);
#394 = CARTESIAN_POINT('',(0.73,-0.7,0.));
#395 = DIRECTION('',(1.,0.,0.));
#396 = DIRECTION('',(0.,0.,1.));
#397 = ADVANCED_FACE('',(#398),#414,.F.);
#398 = FACE_BOUND('',#399,.T.);
#399 = EDGE_LOOP('',(#400,#401,#407,#408));
#400 = ORIENTED_EDGE('',*,*,#81,.F.);
#401 = ORIENTED_EDGE('',*,*,#402,.T.);
#402 = EDGE_CURVE('',#74,#137,#403,.T.);
#403 = LINE('',#404,#405);
#404 = CARTESIAN_POINT('',(3.27,-0.7,-1.110223024625E-16));
#405 = VECTOR('',#406,1.);
#406 = DIRECTION('',(0.,2.22044604925E-16,1.));
#407 = ORIENTED_EDGE('',*,*,#144,.T.);
#408 = ORIENTED_EDGE('',*,*,#409,.F.);
#409 = EDGE_CURVE('',#56,#145,#410,.T.);
#410 = LINE('',#411,#412);
#411 = CARTESIAN_POINT('',(3.27,0.7,-4.218847493576E-16));
#412 = VECTOR('',#413,1.);
#413 = DIRECTION('',(0.,2.22044604925E-16,1.));
#414 = PLANE('',#415);
#415 = AXIS2_PLACEMENT_3D('',#416,#417,#418);
#416 = CARTESIAN_POINT('',(3.27,-0.7,-1.110223024625E-16));
#417 = DIRECTION('',(1.,-1.015061051086E-15,2.253888300631E-31));
#418 = DIRECTION('',(1.015061051086E-15,1.,-2.22044604925E-16));
#419 = ADVANCED_FACE('',(#420),#445,.T.);
#420 = FACE_BOUND('',#421,.T.);
#421 = EDGE_LOOP('',(#422,#432,#438,#439));
#422 = ORIENTED_EDGE('',*,*,#423,.T.);
#423 = EDGE_CURVE('',#424,#426,#428,.T.);
#424 = VERTEX_POINT('',#425);
#425 = CARTESIAN_POINT('',(-1.23,-1.2,5.1));
#426 = VERTEX_POINT('',#427);
#427 = CARTESIAN_POINT('',(-1.23,1.2,5.1));
#428 = LINE('',#429,#430);
#429 = CARTESIAN_POINT('',(-1.23,0.5,5.1));
#430 = VECTOR('',#431,1.);
#431 = DIRECTION('',(2.22044604925E-16,1.,-2.22044604925E-16));
#432 = ORIENTED_EDGE('',*,*,#433,.F.);
#433 = EDGE_CURVE('',#24,#426,#434,.T.);
#434 = LINE('',#435,#436);
#435 = CARTESIAN_POINT('',(-1.23,1.2,-5.329070518201E-16));
#436 = VECTOR('',#437,1.);
#437 = DIRECTION('',(0.,2.22044604925E-16,1.));
#438 = ORIENTED_EDGE('',*,*,#21,.F.);
#439 = ORIENTED_EDGE('',*,*,#440,.T.);
#440 = EDGE_CURVE('',#22,#424,#441,.T.);
#441 = LINE('',#442,#443);
#442 = CARTESIAN_POINT('',(-1.23,-1.2,-1.133987551255E-32));
#443 = VECTOR('',#444,1.);
#444 = DIRECTION('',(0.,2.22044604925E-16,1.));
#445 = PLANE('',#446);
#446 = AXIS2_PLACEMENT_3D('',#447,#448,#449);
#447 = CARTESIAN_POINT('',(-1.23,1.2,-5.329070518201E-16));
#448 = DIRECTION('',(-1.,2.22044604925E-16,-4.930380657631E-32));
#449 = DIRECTION('',(-2.22044604925E-16,-1.,2.22044604925E-16));
#450 = ADVANCED_FACE('',(#451),#469,.T.);
#451 = FACE_BOUND('',#452,.T.);
#452 = EDGE_LOOP('',(#453,#461,#467,#468));
#453 = ORIENTED_EDGE('',*,*,#454,.T.);
#454 = EDGE_CURVE('',#426,#455,#457,.T.);
#455 = VERTEX_POINT('',#456);
#456 = CARTESIAN_POINT('',(3.77,1.2,5.1));
#457 = LINE('',#458,#459);
#458 = CARTESIAN_POINT('',(2.52,1.2,5.1));
#459 = VECTOR('',#460,1.);
#460 = DIRECTION('',(1.,-3.330669073875E-16,7.395570986447E-32));
#461 = ORIENTED_EDGE('',*,*,#462,.F.);
#462 = EDGE_CURVE('',#32,#455,#463,.T.);
#463 = LINE('',#464,#465);
#464 = CARTESIAN_POINT('',(3.77,1.2,-5.329070518201E-16));
#465 = VECTOR('',#466,1.);
#466 = DIRECTION('',(0.,2.22044604925E-16,1.));
#467 = ORIENTED_EDGE('',*,*,#31,.F.);
#468 = ORIENTED_EDGE('',*,*,#433,.T.);
#469 = PLANE('',#470);
#470 = AXIS2_PLACEMENT_3D('',#471,#472,#473);
#471 = CARTESIAN_POINT('',(3.77,1.2,-5.329070518201E-16));
#472 = DIRECTION('',(3.330669073875E-16,1.,-2.22044604925E-16));
#473 = DIRECTION('',(-1.,3.330669073875E-16,-7.395570986447E-32));
#474 = ADVANCED_FACE('',(#475),#493,.T.);
#475 = FACE_BOUND('',#476,.T.);
#476 = EDGE_LOOP('',(#477,#485,#491,#492));
#477 = ORIENTED_EDGE('',*,*,#478,.T.);
#478 = EDGE_CURVE('',#455,#479,#481,.T.);
#479 = VERTEX_POINT('',#480);
#480 = CARTESIAN_POINT('',(3.77,-1.2,5.1));
#481 = LINE('',#482,#483);
#482 = CARTESIAN_POINT('',(3.77,-0.7,5.1));
#483 = VECTOR('',#484,1.);
#484 = DIRECTION('',(-2.22044604925E-16,-1.,2.22044604925E-16));
#485 = ORIENTED_EDGE('',*,*,#486,.F.);
#486 = EDGE_CURVE('',#40,#479,#487,.T.);
#487 = LINE('',#488,#489);
#488 = CARTESIAN_POINT('',(3.77,-1.2,1.858753507927E-31));
#489 = VECTOR('',#490,1.);
#490 = DIRECTION('',(0.,2.22044604925E-16,1.));
#491 = ORIENTED_EDGE('',*,*,#39,.F.);
#492 = ORIENTED_EDGE('',*,*,#462,.T.);
#493 = PLANE('',#494);
#494 = AXIS2_PLACEMENT_3D('',#495,#496,#497);
#495 = CARTESIAN_POINT('',(3.77,-1.2,2.35179157369E-31));
#496 = DIRECTION('',(1.,-2.22044604925E-16,4.930380657631E-32));
#497 = DIRECTION('',(2.22044604925E-16,1.,-2.22044604925E-16));
#498 = ADVANCED_FACE('',(#499),#510,.T.);
#499 = FACE_BOUND('',#500,.T.);
#500 = EDGE_LOOP('',(#501,#507,#508,#509));
#501 = ORIENTED_EDGE('',*,*,#502,.T.);
#502 = EDGE_CURVE('',#479,#424,#503,.T.);
#503 = LINE('',#504,#505);
#504 = CARTESIAN_POINT('',(2.E-02,-1.2,5.1));
#505 = VECTOR('',#506,1.);
#506 = DIRECTION('',(-1.,1.942890293094E-16,-4.314083075427E-32));
#507 = ORIENTED_EDGE('',*,*,#440,.F.);
#508 = ORIENTED_EDGE('',*,*,#47,.F.);
#509 = ORIENTED_EDGE('',*,*,#486,.T.);
#510 = PLANE('',#511);
#511 = AXIS2_PLACEMENT_3D('',#512,#513,#514);
#512 = CARTESIAN_POINT('',(-1.23,-1.2,-1.133987551255E-32));
#513 = DIRECTION('',(-1.942890293094E-16,-1.,2.22044604925E-16));
#514 = DIRECTION('',(1.,-1.942890293094E-16,4.314083075427E-32));
#515 = ADVANCED_FACE('',(#516),#522,.F.);
#516 = FACE_BOUND('',#517,.T.);
#517 = EDGE_LOOP('',(#518,#519,#520,#521));
#518 = ORIENTED_EDGE('',*,*,#55,.F.);
#519 = ORIENTED_EDGE('',*,*,#409,.T.);
#520 = ORIENTED_EDGE('',*,*,#152,.T.);
#521 = ORIENTED_EDGE('',*,*,#96,.F.);
#522 = PLANE('',#523);
#523 = AXIS2_PLACEMENT_3D('',#524,#525,#526);
#524 = CARTESIAN_POINT('',(3.27,0.7,-4.218847493576E-16));
#525 = DIRECTION('',(5.689893001204E-16,1.,-2.22044604925E-16));
#526 = DIRECTION('',(-1.,5.689893001204E-16,-1.263410043518E-31));
#527 = ADVANCED_FACE('',(#528),#539,.T.);
#528 = FACE_BOUND('',#529,.T.);
#529 = EDGE_LOOP('',(#530,#531,#532,#533));
#530 = ORIENTED_EDGE('',*,*,#239,.T.);
#531 = ORIENTED_EDGE('',*,*,#270,.T.);
#532 = ORIENTED_EDGE('',*,*,#301,.T.);
#533 = ORIENTED_EDGE('',*,*,#534,.T.);
#534 = EDGE_CURVE('',#302,#232,#535,.T.);
#535 = LINE('',#536,#537);
#536 = CARTESIAN_POINT('',(2.14,0.,0.));
#537 = VECTOR('',#538,1.);
#538 = DIRECTION('',(0.,0.,-1.));
#539 = PLANE('',#540);
#540 = AXIS2_PLACEMENT_3D('',#541,#542,#543);
#541 = CARTESIAN_POINT('',(0.,0.,0.));
#542 = DIRECTION('',(0.,1.,0.));
#543 = DIRECTION('',(0.,0.,1.));
#544 = ADVANCED_FACE('',(#545),#556,.T.);
#545 = FACE_BOUND('',#546,.T.);
#546 = EDGE_LOOP('',(#547,#548,#554,#555));
#547 = ORIENTED_EDGE('',*,*,#309,.F.);
#548 = ORIENTED_EDGE('',*,*,#549,.F.);
#549 = EDGE_CURVE('',#224,#310,#550,.T.);
#550 = LINE('',#551,#552);
#551 = CARTESIAN_POINT('',(2.14,-0.4,0.));
#552 = VECTOR('',#553,1.);
#553 = DIRECTION('',(0.,0.,1.));
#554 = ORIENTED_EDGE('',*,*,#231,.T.);
#555 = ORIENTED_EDGE('',*,*,#534,.F.);
#556 = PLANE('',#557);
#557 = AXIS2_PLACEMENT_3D('',#558,#559,#560);
#558 = CARTESIAN_POINT('',(2.14,-0.4,0.));
#559 = DIRECTION('',(1.,0.,0.));
#560 = DIRECTION('',(0.,0.,1.));
#561 = ADVANCED_FACE('',(#562),#573,.T.);
#562 = FACE_BOUND('',#563,.T.);
#563 = EDGE_LOOP('',(#564,#570,#571,#572));
#564 = ORIENTED_EDGE('',*,*,#565,.F.);
#565 = EDGE_CURVE('',#216,#318,#566,.T.);
#566 = LINE('',#567,#568);
#567 = CARTESIAN_POINT('',(2.94,-0.4,0.));
#568 = VECTOR('',#569,1.);
#569 = DIRECTION('',(0.,0.,1.));
#570 = ORIENTED_EDGE('',*,*,#223,.T.);
#571 = ORIENTED_EDGE('',*,*,#549,.T.);
#572 = ORIENTED_EDGE('',*,*,#317,.T.);
#573 = PLANE('',#574);
#574 = AXIS2_PLACEMENT_3D('',#575,#576,#577);
#575 = CARTESIAN_POINT('',(2.14,-0.4,0.));
#576 = DIRECTION('',(0.,1.,0.));
#577 = DIRECTION('',(0.,0.,1.));
#578 = ADVANCED_FACE('',(#579),#590,.F.);
#579 = FACE_BOUND('',#580,.F.);
#580 = EDGE_LOOP('',(#581,#582,#583,#589));
#581 = ORIENTED_EDGE('',*,*,#565,.F.);
#582 = ORIENTED_EDGE('',*,*,#215,.T.);
#583 = ORIENTED_EDGE('',*,*,#584,.T.);
#584 = EDGE_CURVE('',#208,#326,#585,.T.);
#585 = LINE('',#586,#587);
#586 = CARTESIAN_POINT('',(2.94,0.4,0.));
#587 = VECTOR('',#588,1.);
#588 = DIRECTION('',(0.,0.,1.));
#589 = ORIENTED_EDGE('',*,*,#325,.F.);
#590 = PLANE('',#591);
#591 = AXIS2_PLACEMENT_3D('',#592,#593,#594);
#592 = CARTESIAN_POINT('',(2.94,-0.4,0.));
#593 = DIRECTION('',(1.,0.,0.));
#594 = DIRECTION('',(0.,0.,1.));
#595 = ADVANCED_FACE('',(#596),#607,.F.);
#596 = FACE_BOUND('',#597,.F.);
#597 = EDGE_LOOP('',(#598,#599,#605,#606));
#598 = ORIENTED_EDGE('',*,*,#207,.T.);
#599 = ORIENTED_EDGE('',*,*,#600,.T.);
#600 = EDGE_CURVE('',#200,#334,#601,.T.);
#601 = LINE('',#602,#603);
#602 = CARTESIAN_POINT('',(-0.4,0.4,0.));
#603 = VECTOR('',#604,1.);
#604 = DIRECTION('',(0.,0.,1.));
#605 = ORIENTED_EDGE('',*,*,#333,.T.);
#606 = ORIENTED_EDGE('',*,*,#584,.F.);
#607 = PLANE('',#608);
#608 = AXIS2_PLACEMENT_3D('',#609,#610,#611);
#609 = CARTESIAN_POINT('',(1.27,0.4,3.005));
#610 = DIRECTION('',(0.,1.,0.));
#611 = DIRECTION('',(0.,0.,1.));
#612 = ADVANCED_FACE('',(#613),#624,.T.);
#613 = FACE_BOUND('',#614,.T.);
#614 = EDGE_LOOP('',(#615,#621,#622,#623));
#615 = ORIENTED_EDGE('',*,*,#616,.F.);
#616 = EDGE_CURVE('',#192,#342,#617,.T.);
#617 = LINE('',#618,#619);
#618 = CARTESIAN_POINT('',(-0.4,-0.4,0.));
#619 = VECTOR('',#620,1.);
#620 = DIRECTION('',(0.,0.,1.));
#621 = ORIENTED_EDGE('',*,*,#199,.T.);
#622 = ORIENTED_EDGE('',*,*,#600,.T.);
#623 = ORIENTED_EDGE('',*,*,#341,.F.);
#624 = PLANE('',#625);
#625 = AXIS2_PLACEMENT_3D('',#626,#627,#628);
#626 = CARTESIAN_POINT('',(-0.4,-0.4,0.));
#627 = DIRECTION('',(1.,0.,0.));
#628 = DIRECTION('',(0.,0.,1.));
#629 = ADVANCED_FACE('',(#630),#641,.T.);
#630 = FACE_BOUND('',#631,.T.);
#631 = EDGE_LOOP('',(#632,#638,#639,#640));
#632 = ORIENTED_EDGE('',*,*,#633,.F.);
#633 = EDGE_CURVE('',#184,#350,#634,.T.);
#634 = LINE('',#635,#636);
#635 = CARTESIAN_POINT('',(0.4,-0.4,0.));
#636 = VECTOR('',#637,1.);
#637 = DIRECTION('',(0.,0.,1.));
#638 = ORIENTED_EDGE('',*,*,#191,.T.);
#639 = ORIENTED_EDGE('',*,*,#616,.T.);
#640 = ORIENTED_EDGE('',*,*,#349,.T.);
#641 = PLANE('',#642);
#642 = AXIS2_PLACEMENT_3D('',#643,#644,#645);
#643 = CARTESIAN_POINT('',(-0.4,-0.4,0.));
#644 = DIRECTION('',(0.,1.,0.));
#645 = DIRECTION('',(0.,0.,1.));
#646 = ADVANCED_FACE('',(#647),#658,.F.);
#647 = FACE_BOUND('',#648,.F.);
#648 = EDGE_LOOP('',(#649,#650,#651,#652));
#649 = ORIENTED_EDGE('',*,*,#357,.F.);
#650 = ORIENTED_EDGE('',*,*,#633,.F.);
#651 = ORIENTED_EDGE('',*,*,#183,.T.);
#652 = ORIENTED_EDGE('',*,*,#653,.F.);
#653 = EDGE_CURVE('',#358,#176,#654,.T.);
#654 = LINE('',#655,#656);
#655 = CARTESIAN_POINT('',(0.4,0.,0.));
#656 = VECTOR('',#657,1.);
#657 = DIRECTION('',(0.,0.,-1.));
#658 = PLANE('',#659);
#659 = AXIS2_PLACEMENT_3D('',#660,#661,#662);
#660 = CARTESIAN_POINT('',(0.4,-0.4,0.));
#661 = DIRECTION('',(1.,0.,0.));
#662 = DIRECTION('',(0.,0.,1.));
#663 = ADVANCED_FACE('',(#664),#670,.T.);
#664 = FACE_BOUND('',#665,.T.);
#665 = EDGE_LOOP('',(#666,#667,#668,#669));
#666 = ORIENTED_EDGE('',*,*,#175,.T.);
#667 = ORIENTED_EDGE('',*,*,#653,.F.);
#668 = ORIENTED_EDGE('',*,*,#365,.T.);
#669 = ORIENTED_EDGE('',*,*,#387,.F.);
#670 = PLANE('',#671);
#671 = AXIS2_PLACEMENT_3D('',#672,#673,#674);
#672 = CARTESIAN_POINT('',(0.,0.,0.));
#673 = DIRECTION('',(0.,1.,0.));
#674 = DIRECTION('',(0.,0.,1.));
#675 = ADVANCED_FACE('',(#676,#682),#716,.F.);
#676 = FACE_BOUND('',#677,.T.);
#677 = EDGE_LOOP('',(#678,#679,#680,#681));
#678 = ORIENTED_EDGE('',*,*,#454,.F.);
#679 = ORIENTED_EDGE('',*,*,#423,.F.);
#680 = ORIENTED_EDGE('',*,*,#502,.F.);
#681 = ORIENTED_EDGE('',*,*,#478,.F.);
#682 = FACE_BOUND('',#683,.T.);
#683 = EDGE_LOOP('',(#684,#694,#702,#710));
#684 = ORIENTED_EDGE('',*,*,#685,.F.);
#685 = EDGE_CURVE('',#686,#688,#690,.T.);
#686 = VERTEX_POINT('',#687);
#687 = CARTESIAN_POINT('',(3.67,1.1,5.1));
#688 = VERTEX_POINT('',#689);
#689 = CARTESIAN_POINT('',(-1.13,1.1,5.1));
#690 = LINE('',#691,#692);
#691 = CARTESIAN_POINT('',(7.E-02,1.1,5.1));
#692 = VECTOR('',#693,1.);
#693 = DIRECTION('',(-1.,-6.707597440444E-17,1.489385823659E-32));
#694 = ORIENTED_EDGE('',*,*,#695,.F.);
#695 = EDGE_CURVE('',#696,#686,#698,.T.);
#696 = VERTEX_POINT('',#697);
#697 = CARTESIAN_POINT('',(3.67,-1.1,5.1));
#698 = LINE('',#699,#700);
#699 = CARTESIAN_POINT('',(3.67,0.45,5.1));
#700 = VECTOR('',#701,1.);
#701 = DIRECTION('',(2.22044604925E-16,1.,-2.22044604925E-16));
#702 = ORIENTED_EDGE('',*,*,#703,.F.);
#703 = EDGE_CURVE('',#704,#696,#706,.T.);
#704 = VERTEX_POINT('',#705);
#705 = CARTESIAN_POINT('',(-1.13,-1.1,5.1));
#706 = LINE('',#707,#708);
#707 = CARTESIAN_POINT('',(2.47,-1.1,5.1));
#708 = VECTOR('',#709,1.);
#709 = DIRECTION('',(1.,1.791101988946E-16,-3.97704533516E-32));
#710 = ORIENTED_EDGE('',*,*,#711,.F.);
#711 = EDGE_CURVE('',#688,#704,#712,.T.);
#712 = LINE('',#713,#714);
#713 = CARTESIAN_POINT('',(-1.13,-0.65,5.1));
#714 = VECTOR('',#715,1.);
#715 = DIRECTION('',(2.239370305352E-17,-1.,2.22044604925E-16));
#716 = PLANE('',#717);
#717 = AXIS2_PLACEMENT_3D('',#718,#719,#720);
#718 = CARTESIAN_POINT('',(1.27,-0.2,5.1));
#719 = DIRECTION('',(-0.,-2.22044604925E-16,-1.));
#720 = DIRECTION('',(1.,-2.22044604925E-16,4.93038065763E-32));
#721 = ADVANCED_FACE('',(#722),#747,.T.);
#722 = FACE_BOUND('',#723,.T.);
#723 = EDGE_LOOP('',(#724,#734,#740,#741));
#724 = ORIENTED_EDGE('',*,*,#725,.T.);
#725 = EDGE_CURVE('',#726,#728,#730,.T.);
#726 = VERTEX_POINT('',#727);
#727 = CARTESIAN_POINT('',(-1.13,1.1,5.7));
#728 = VERTEX_POINT('',#729);
#729 = CARTESIAN_POINT('',(3.67,1.1,5.7));
#730 = LINE('',#731,#732);
#731 = CARTESIAN_POINT('',(7.E-02,1.1,5.7));
#732 = VECTOR('',#733,1.);
#733 = DIRECTION('',(1.,6.707597440444E-17,-1.489385823659E-32));
#734 = ORIENTED_EDGE('',*,*,#735,.T.);
#735 = EDGE_CURVE('',#728,#686,#736,.T.);
#736 = LINE('',#737,#738);
#737 = CARTESIAN_POINT('',(3.67,1.1,5.7));
#738 = VECTOR('',#739,1.);
#739 = DIRECTION('',(-0.,-2.22044604925E-16,-1.));
#740 = ORIENTED_EDGE('',*,*,#685,.T.);
#741 = ORIENTED_EDGE('',*,*,#742,.F.);
#742 = EDGE_CURVE('',#726,#688,#743,.T.);
#743 = LINE('',#744,#745);
#744 = CARTESIAN_POINT('',(-1.13,1.1,5.7));
#745 = VECTOR('',#746,1.);
#746 = DIRECTION('',(-0.,-2.22044604925E-16,-1.));
#747 = PLANE('',#748);
#748 = AXIS2_PLACEMENT_3D('',#749,#750,#751);
#749 = CARTESIAN_POINT('',(-1.13,1.1,5.7));
#750 = DIRECTION('',(-6.707597440444E-17,1.,-2.22044604925E-16));
#751 = DIRECTION('',(1.,6.707597440444E-17,-1.489385823659E-32));
#752 = ADVANCED_FACE('',(#753),#771,.T.);
#753 = FACE_BOUND('',#754,.T.);
#754 = EDGE_LOOP('',(#755,#763,#769,#770));
#755 = ORIENTED_EDGE('',*,*,#756,.T.);
#756 = EDGE_CURVE('',#728,#757,#759,.T.);
#757 = VERTEX_POINT('',#758);
#758 = CARTESIAN_POINT('',(3.67,-1.1,5.7));
#759 = LINE('',#760,#761);
#760 = CARTESIAN_POINT('',(3.67,0.45,5.7));
#761 = VECTOR('',#762,1.);
#762 = DIRECTION('',(-2.22044604925E-16,-1.,2.22044604925E-16));
#763 = ORIENTED_EDGE('',*,*,#764,.T.);
#764 = EDGE_CURVE('',#757,#696,#765,.T.);
#765 = LINE('',#766,#767);
#766 = CARTESIAN_POINT('',(3.67,-1.1,5.7));
#767 = VECTOR('',#768,1.);
#768 = DIRECTION('',(-0.,-2.22044604925E-16,-1.));
#769 = ORIENTED_EDGE('',*,*,#695,.T.);
#770 = ORIENTED_EDGE('',*,*,#735,.F.);
#771 = PLANE('',#772);
#772 = AXIS2_PLACEMENT_3D('',#773,#774,#775);
#773 = CARTESIAN_POINT('',(3.67,1.1,5.7));
#774 = DIRECTION('',(1.,-2.22044604925E-16,4.930380657631E-32));
#775 = DIRECTION('',(-2.22044604925E-16,-1.,2.22044604925E-16));
#776 = ADVANCED_FACE('',(#777),#795,.T.);
#777 = FACE_BOUND('',#778,.T.);
#778 = EDGE_LOOP('',(#779,#787,#793,#794));
#779 = ORIENTED_EDGE('',*,*,#780,.T.);
#780 = EDGE_CURVE('',#757,#781,#783,.T.);
#781 = VERTEX_POINT('',#782);
#782 = CARTESIAN_POINT('',(-1.13,-1.1,5.7));
#783 = LINE('',#784,#785);
#784 = CARTESIAN_POINT('',(2.47,-1.1,5.7));
#785 = VECTOR('',#786,1.);
#786 = DIRECTION('',(-1.,-1.791101988946E-16,3.97704533516E-32));
#787 = ORIENTED_EDGE('',*,*,#788,.T.);
#788 = EDGE_CURVE('',#781,#704,#789,.T.);
#789 = LINE('',#790,#791);
#790 = CARTESIAN_POINT('',(-1.13,-1.1,5.7));
#791 = VECTOR('',#792,1.);
#792 = DIRECTION('',(-0.,-2.22044604925E-16,-1.));
#793 = ORIENTED_EDGE('',*,*,#703,.T.);
#794 = ORIENTED_EDGE('',*,*,#764,.F.);
#795 = PLANE('',#796);
#796 = AXIS2_PLACEMENT_3D('',#797,#798,#799);
#797 = CARTESIAN_POINT('',(3.67,-1.1,5.7));
#798 = DIRECTION('',(1.791101988946E-16,-1.,2.22044604925E-16));
#799 = DIRECTION('',(-1.,-1.791101988946E-16,3.97704533516E-32));
#800 = ADVANCED_FACE('',(#801),#812,.T.);
#801 = FACE_BOUND('',#802,.T.);
#802 = EDGE_LOOP('',(#803,#809,#810,#811));
#803 = ORIENTED_EDGE('',*,*,#804,.T.);
#804 = EDGE_CURVE('',#781,#726,#805,.T.);
#805 = LINE('',#806,#807);
#806 = CARTESIAN_POINT('',(-1.13,-0.65,5.7));
#807 = VECTOR('',#808,1.);
#808 = DIRECTION('',(-2.239370305352E-17,1.,-2.22044604925E-16));
#809 = ORIENTED_EDGE('',*,*,#742,.T.);
#810 = ORIENTED_EDGE('',*,*,#711,.T.);
#811 = ORIENTED_EDGE('',*,*,#788,.F.);
#812 = PLANE('',#813);
#813 = AXIS2_PLACEMENT_3D('',#814,#815,#816);
#814 = CARTESIAN_POINT('',(-1.13,-1.1,5.7));
#815 = DIRECTION('',(-1.,-2.239370305352E-17,4.972400947327E-33));
#816 = DIRECTION('',(-2.239370305352E-17,1.,-2.22044604925E-16));
#817 = ADVANCED_FACE('',(#818,#852),#858,.F.);
#818 = FACE_BOUND('',#819,.T.);
#819 = EDGE_LOOP('',(#820,#830,#838,#846));
#820 = ORIENTED_EDGE('',*,*,#821,.F.);
#821 = EDGE_CURVE('',#822,#824,#826,.T.);
#822 = VERTEX_POINT('',#823);
#823 = CARTESIAN_POINT('',(3.77,1.2,5.7));
#824 = VERTEX_POINT('',#825);
#825 = CARTESIAN_POINT('',(-1.23,1.2,5.7));
#826 = LINE('',#827,#828);
#827 = CARTESIAN_POINT('',(2.52,1.2,5.7));
#828 = VECTOR('',#829,1.);
#829 = DIRECTION('',(-1.,3.330669073875E-16,-7.395570986447E-32));
#830 = ORIENTED_EDGE('',*,*,#831,.F.);
#831 = EDGE_CURVE('',#832,#822,#834,.T.);
#832 = VERTEX_POINT('',#833);
#833 = CARTESIAN_POINT('',(3.77,-1.2,5.7));
#834 = LINE('',#835,#836);
#835 = CARTESIAN_POINT('',(3.77,-0.7,5.7));
#836 = VECTOR('',#837,1.);
#837 = DIRECTION('',(2.22044604925E-16,1.,-2.22044604925E-16));
#838 = ORIENTED_EDGE('',*,*,#839,.F.);
#839 = EDGE_CURVE('',#840,#832,#842,.T.);
#840 = VERTEX_POINT('',#841);
#841 = CARTESIAN_POINT('',(-1.23,-1.2,5.7));
#842 = LINE('',#843,#844);
#843 = CARTESIAN_POINT('',(2.E-02,-1.2,5.7));
#844 = VECTOR('',#845,1.);
#845 = DIRECTION('',(1.,-1.942890293094E-16,4.314083075427E-32));
#846 = ORIENTED_EDGE('',*,*,#847,.F.);
#847 = EDGE_CURVE('',#824,#840,#848,.T.);
#848 = LINE('',#849,#850);
#849 = CARTESIAN_POINT('',(-1.23,0.5,5.7));
#850 = VECTOR('',#851,1.);
#851 = DIRECTION('',(-2.22044604925E-16,-1.,2.22044604925E-16));
#852 = FACE_BOUND('',#853,.T.);
#853 = EDGE_LOOP('',(#854,#855,#856,#857));
#854 = ORIENTED_EDGE('',*,*,#725,.F.);
#855 = ORIENTED_EDGE('',*,*,#804,.F.);
#856 = ORIENTED_EDGE('',*,*,#780,.F.);
#857 = ORIENTED_EDGE('',*,*,#756,.F.);
#858 = PLANE('',#859);
#859 = AXIS2_PLACEMENT_3D('',#860,#861,#862);
#860 = CARTESIAN_POINT('',(1.27,-0.2,5.7));
#861 = DIRECTION('',(0.,2.22044604925E-16,1.));
#862 = DIRECTION('',(-1.,2.22044604925E-16,-4.93038065763E-32));
#863 = ADVANCED_FACE('',(#864),#889,.T.);
#864 = FACE_BOUND('',#865,.T.);
#865 = EDGE_LOOP('',(#866,#867,#875,#883));
#866 = ORIENTED_EDGE('',*,*,#821,.T.);
#867 = ORIENTED_EDGE('',*,*,#868,.T.);
#868 = EDGE_CURVE('',#824,#869,#871,.T.);
#869 = VERTEX_POINT('',#870);
#870 = CARTESIAN_POINT('',(-1.23,1.2,6.3));
#871 = LINE('',#872,#873);
#872 = CARTESIAN_POINT('',(-1.23,1.2,-5.329070518201E-16));
#873 = VECTOR('',#874,1.);
#874 = DIRECTION('',(0.,2.22044604925E-16,1.));
#875 = ORIENTED_EDGE('',*,*,#876,.F.);
#876 = EDGE_CURVE('',#877,#869,#879,.T.);
#877 = VERTEX_POINT('',#878);
#878 = CARTESIAN_POINT('',(3.77,1.2,6.3));
#879 = LINE('',#880,#881);
#880 = CARTESIAN_POINT('',(-1.23,1.2,6.3));
#881 = VECTOR('',#882,1.);
#882 = DIRECTION('',(-1.,3.330669073875E-16,-7.395570986447E-32));
#883 = ORIENTED_EDGE('',*,*,#884,.F.);
#884 = EDGE_CURVE('',#822,#877,#885,.T.);
#885 = LINE('',#886,#887);
#886 = CARTESIAN_POINT('',(3.77,1.2,-5.329070518201E-16));
#887 = VECTOR('',#888,1.);
#888 = DIRECTION('',(0.,2.22044604925E-16,1.));
#889 = PLANE('',#890);
#890 = AXIS2_PLACEMENT_3D('',#891,#892,#893);
#891 = CARTESIAN_POINT('',(3.77,1.2,-5.329070518201E-16));
#892 = DIRECTION('',(3.330669073875E-16,1.,-2.22044604925E-16));
#893 = DIRECTION('',(-1.,3.330669073875E-16,-7.395570986447E-32));
#894 = ADVANCED_FACE('',(#895),#913,.T.);
#895 = FACE_BOUND('',#896,.T.);
#896 = EDGE_LOOP('',(#897,#898,#899,#907));
#897 = ORIENTED_EDGE('',*,*,#831,.T.);
#898 = ORIENTED_EDGE('',*,*,#884,.T.);
#899 = ORIENTED_EDGE('',*,*,#900,.F.);
#900 = EDGE_CURVE('',#901,#877,#903,.T.);
#901 = VERTEX_POINT('',#902);
#902 = CARTESIAN_POINT('',(3.77,-1.2,6.3));
#903 = LINE('',#904,#905);
#904 = CARTESIAN_POINT('',(3.77,1.2,6.3));
#905 = VECTOR('',#906,1.);
#906 = DIRECTION('',(2.22044604925E-16,1.,-2.22044604925E-16));
#907 = ORIENTED_EDGE('',*,*,#908,.F.);
#908 = EDGE_CURVE('',#832,#901,#909,.T.);
#909 = LINE('',#910,#911);
#910 = CARTESIAN_POINT('',(3.77,-1.2,1.858753507927E-31));
#911 = VECTOR('',#912,1.);
#912 = DIRECTION('',(0.,2.22044604925E-16,1.));
#913 = PLANE('',#914);
#914 = AXIS2_PLACEMENT_3D('',#915,#916,#917);
#915 = CARTESIAN_POINT('',(3.77,-1.2,2.35179157369E-31));
#916 = DIRECTION('',(1.,-2.22044604925E-16,4.930380657631E-32));
#917 = DIRECTION('',(2.22044604925E-16,1.,-2.22044604925E-16));
#918 = ADVANCED_FACE('',(#919),#937,.T.);
#919 = FACE_BOUND('',#920,.T.);
#920 = EDGE_LOOP('',(#921,#922,#923,#931));
#921 = ORIENTED_EDGE('',*,*,#839,.T.);
#922 = ORIENTED_EDGE('',*,*,#908,.T.);
#923 = ORIENTED_EDGE('',*,*,#924,.F.);
#924 = EDGE_CURVE('',#925,#901,#927,.T.);
#925 = VERTEX_POINT('',#926);
#926 = CARTESIAN_POINT('',(-1.23,-1.2,6.3));
#927 = LINE('',#928,#929);
#928 = CARTESIAN_POINT('',(3.77,-1.2,6.3));
#929 = VECTOR('',#930,1.);
#930 = DIRECTION('',(1.,-1.942890293094E-16,4.314083075427E-32));
#931 = ORIENTED_EDGE('',*,*,#932,.F.);
#932 = EDGE_CURVE('',#840,#925,#933,.T.);
#933 = LINE('',#934,#935);
#934 = CARTESIAN_POINT('',(-1.23,-1.2,-1.133987551255E-32));
#935 = VECTOR('',#936,1.);
#936 = DIRECTION('',(0.,2.22044604925E-16,1.));
#937 = PLANE('',#938);
#938 = AXIS2_PLACEMENT_3D('',#939,#940,#941);
#939 = CARTESIAN_POINT('',(-1.23,-1.2,-1.133987551255E-32));
#940 = DIRECTION('',(-1.942890293094E-16,-1.,2.22044604925E-16));
#941 = DIRECTION('',(1.,-1.942890293094E-16,4.314083075427E-32));
#942 = ADVANCED_FACE('',(#943),#954,.T.);
#943 = FACE_BOUND('',#944,.T.);
#944 = EDGE_LOOP('',(#945,#946,#947,#953));
#945 = ORIENTED_EDGE('',*,*,#847,.T.);
#946 = ORIENTED_EDGE('',*,*,#932,.T.);
#947 = ORIENTED_EDGE('',*,*,#948,.F.);
#948 = EDGE_CURVE('',#869,#925,#949,.T.);
#949 = LINE('',#950,#951);
#950 = CARTESIAN_POINT('',(-1.23,-1.2,6.3));
#951 = VECTOR('',#952,1.);
#952 = DIRECTION('',(-2.22044604925E-16,-1.,2.22044604925E-16));
#953 = ORIENTED_EDGE('',*,*,#868,.F.);
#954 = PLANE('',#955);
#955 = AXIS2_PLACEMENT_3D('',#956,#957,#958);
#956 = CARTESIAN_POINT('',(-1.23,1.2,-5.329070518201E-16));
#957 = DIRECTION('',(-1.,2.22044604925E-16,-4.930380657631E-32));
#958 = DIRECTION('',(-2.22044604925E-16,-1.,2.22044604925E-16));
#959 = ADVANCED_FACE('',(#960),#966,.T.);
#960 = FACE_BOUND('',#961,.T.);
#961 = EDGE_LOOP('',(#962,#963,#964,#965));
#962 = ORIENTED_EDGE('',*,*,#948,.T.);
#963 = ORIENTED_EDGE('',*,*,#924,.T.);
#964 = ORIENTED_EDGE('',*,*,#900,.T.);
#965 = ORIENTED_EDGE('',*,*,#876,.T.);
#966 = PLANE('',#967);
#967 = AXIS2_PLACEMENT_3D('',#968,#969,#970);
#968 = CARTESIAN_POINT('',(1.27,8.948397578479E-16,6.3));
#969 = DIRECTION('',(0.,2.22044604925E-16,1.));
#970 = DIRECTION('',(-1.,2.22044604925E-16,-4.93038065763E-32));
#971 = ADVANCED_FACE('',(#972),#982,.T.);
#972 = FACE_BOUND('',#973,.T.);
#973 = EDGE_LOOP('',(#974,#975,#976,#977,#978,#979,#980,#981));
#974 = ORIENTED_EDGE('',*,*,#73,.F.);
#975 = ORIENTED_EDGE('',*,*,#112,.T.);
#976 = ORIENTED_EDGE('',*,*,#159,.T.);
#977 = ORIENTED_EDGE('',*,*,#380,.T.);
#978 = ORIENTED_EDGE('',*,*,#294,.T.);
#979 = ORIENTED_EDGE('',*,*,#263,.F.);
#980 = ORIENTED_EDGE('',*,*,#136,.T.);
#981 = ORIENTED_EDGE('',*,*,#402,.F.);
#982 = PLANE('',#983);
#983 = AXIS2_PLACEMENT_3D('',#984,#985,#986);
#984 = CARTESIAN_POINT('',(1.27,-0.7,2.157587412587));
#985 = DIRECTION('',(4.528690990809E-16,1.,0.));
#986 = DIRECTION('',(1.,-4.528690990809E-16,0.));
#987 = ( GEOMETRIC_REPRESENTATION_CONTEXT(3) 
GLOBAL_UNCERTAINTY_ASSIGNED_CONTEXT((#991)) GLOBAL_UNIT_ASSIGNED_CONTEXT
((#988,#989,#990)) REPRESENTATION_CONTEXT('Context #1',
  '3D Context with UNIT and UNCERTAINTY') );
#988 = ( LENGTH_UNIT() NAMED_UNIT(*) SI_UNIT(.MILLI.,.METRE.) );
#989 = ( NAMED_UNIT(*) PLANE_ANGLE_UNIT() SI_UNIT($,.RADIAN.) );
#990 = ( NAMED_UNIT(*) SI_UNIT($,.STERADIAN.) SOLID_ANGLE_UNIT() );
#991 = UNCERTAINTY_MEASURE_WITH_UNIT(LENGTH_MEASURE(1.E-07),#988,
  'distance_accuracy_value','confusion accuracy');
#992 = PRODUCT_RELATED_PRODUCT_CATEGORY('part',$,(#7));
#993 = MECHANICAL_DESIGN_GEOMETRIC_PRESENTATION_REPRESENTATION('',(#994,
    #1005,#1013,#1020,#1027,#1034,#1041,#1048,#1055,#1062,#1069,#1076,
    #1083),#987);
#994 = STYLED_ITEM('color',(#995),#15);
#995 = PRESENTATION_STYLE_ASSIGNMENT((#996,#1002));
#996 = SURFACE_STYLE_USAGE(.BOTH.,#997);
#997 = SURFACE_SIDE_STYLE('',(#998));
#998 = SURFACE_STYLE_FILL_AREA(#999);
#999 = FILL_AREA_STYLE('',(#1000));
#1000 = FILL_AREA_STYLE_COLOUR('',#1001);
#1001 = COLOUR_RGB('',0.11764705971,0.11764705971,0.11764705971);
#1002 = CURVE_STYLE('',#1003,POSITIVE_LENGTH_MEASURE(0.1),#1004);
#1003 = DRAUGHTING_PRE_DEFINED_CURVE_FONT('continuous');
#1004 = COLOUR_RGB('',9.803921802644E-02,9.803921802644E-02,
  9.803921802644E-02);
#1005 = OVER_RIDING_STYLED_ITEM('overriding color',(#1006),#122,#994);
#1006 = PRESENTATION_STYLE_ASSIGNMENT((#1007));
#1007 = SURFACE_STYLE_USAGE(.BOTH.,#1008);
#1008 = SURFACE_SIDE_STYLE('',(#1009));
#1009 = SURFACE_STYLE_FILL_AREA(#1010);
#1010 = FILL_AREA_STYLE('',(#1011));
#1011 = FILL_AREA_STYLE_COLOUR('',#1012);
#1012 = COLOUR_RGB('',0.815686284108,0.627451011593,0.180392163476);
#1013 = OVER_RIDING_STYLED_ITEM('overriding color',(#1014),#249,#994);
#1014 = PRESENTATION_STYLE_ASSIGNMENT((#1015));
#1015 = SURFACE_STYLE_USAGE(.BOTH.,#1016);
#1016 = SURFACE_SIDE_STYLE('',(#1017));
#1017 = SURFACE_STYLE_FILL_AREA(#1018);
#1018 = FILL_AREA_STYLE('',(#1019));
#1019 = FILL_AREA_STYLE_COLOUR('',#1012);
#1020 = OVER_RIDING_STYLED_ITEM('overriding color',(#1021),#375,#994);
#1021 = PRESENTATION_STYLE_ASSIGNMENT((#1022));
#1022 = SURFACE_STYLE_USAGE(.BOTH.,#1023);
#1023 = SURFACE_SIDE_STYLE('',(#1024));
#1024 = SURFACE_STYLE_FILL_AREA(#1025);
#1025 = FILL_AREA_STYLE('',(#1026));
#1026 = FILL_AREA_STYLE_COLOUR('',#1012);
#1027 = OVER_RIDING_STYLED_ITEM('overriding color',(#1028),#527,#994);
#1028 = PRESENTATION_STYLE_ASSIGNMENT((#1029));
#1029 = SURFACE_STYLE_USAGE(.BOTH.,#1030);
#1030 = SURFACE_SIDE_STYLE('',(#1031));
#1031 = SURFACE_STYLE_FILL_AREA(#1032);
#1032 = FILL_AREA_STYLE('',(#1033));
#1033 = FILL_AREA_STYLE_COLOUR('',#1012);
#1034 = OVER_RIDING_STYLED_ITEM('overriding color',(#1035),#544,#994);
#1035 = PRESENTATION_STYLE_ASSIGNMENT((#1036));
#1036 = SURFACE_STYLE_USAGE(.BOTH.,#1037);
#1037 = SURFACE_SIDE_STYLE('',(#1038));
#1038 = SURFACE_STYLE_FILL_AREA(#1039);
#1039 = FILL_AREA_STYLE('',(#1040));
#1040 = FILL_AREA_STYLE_COLOUR('',#1012);
#1041 = OVER_RIDING_STYLED_ITEM('overriding color',(#1042),#561,#994);
#1042 = PRESENTATION_STYLE_ASSIGNMENT((#1043));
#1043 = SURFACE_STYLE_USAGE(.BOTH.,#1044);
#1044 = SURFACE_SIDE_STYLE('',(#1045));
#1045 = SURFACE_STYLE_FILL_AREA(#1046);
#1046 = FILL_AREA_STYLE('',(#1047));
#1047 = FILL_AREA_STYLE_COLOUR('',#1012);
#1048 = OVER_RIDING_STYLED_ITEM('overriding color',(#1049),#578,#994);
#1049 = PRESENTATION_STYLE_ASSIGNMENT((#1050));
#1050 = SURFACE_STYLE_USAGE(.BOTH.,#1051);
#1051 = SURFACE_SIDE_STYLE('',(#1052));
#1052 = SURFACE_STYLE_FILL_AREA(#1053);
#1053 = FILL_AREA_STYLE('',(#1054));
#1054 = FILL_AREA_STYLE_COLOUR('',#1012);
#1055 = OVER_RIDING_STYLED_ITEM('overriding color',(#1056),#595,#994);
#1056 = PRESENTATION_STYLE_ASSIGNMENT((#1057));
#1057 = SURFACE_STYLE_USAGE(.BOTH.,#1058);
#1058 = SURFACE_SIDE_STYLE('',(#1059));
#1059 = SURFACE_STYLE_FILL_AREA(#1060);
#1060 = FILL_AREA_STYLE('',(#1061));
#1061 = FILL_AREA_STYLE_COLOUR('',#1012);
#1062 = OVER_RIDING_STYLED_ITEM('overriding color',(#1063),#612,#994);
#1063 = PRESENTATION_STYLE_ASSIGNMENT((#1064));
#1064 = SURFACE_STYLE_USAGE(.BOTH.,#1065);
#1065 = SURFACE_SIDE_STYLE('',(#1066));
#1066 = SURFACE_STYLE_FILL_AREA(#1067);
#1067 = FILL_AREA_STYLE('',(#1068));
#1068 = FILL_AREA_STYLE_COLOUR('',#1012);
#1069 = OVER_RIDING_STYLED_ITEM('overriding color',(#1070),#629,#994);
#1070 = PRESENTATION_STYLE_ASSIGNMENT((#1071));
#1071 = SURFACE_STYLE_USAGE(.BOTH.,#1072);
#1072 = SURFACE_SIDE_STYLE('',(#1073));
#1073 = SURFACE_STYLE_FILL_AREA(#1074);
#1074 = FILL_AREA_STYLE('',(#1075));
#1075 = FILL_AREA_STYLE_COLOUR('',#1012);
#1076 = OVER_RIDING_STYLED_ITEM('overriding color',(#1077),#646,#994);
#1077 = PRESENTATION_STYLE_ASSIGNMENT((#1078));
#1078 = SURFACE_STYLE_USAGE(.BOTH.,#1079);
#1079 = SURFACE_SIDE_STYLE('',(#1080));
#1080 = SURFACE_STYLE_FILL_AREA(#1081);
#1081 = FILL_AREA_STYLE('',(#1082));
#1082 = FILL_AREA_STYLE_COLOUR('',#1012);
#1083 = OVER_RIDING_STYLED_ITEM('overriding color',(#1084),#663,#994);
#1084 = PRESENTATION_STYLE_ASSIGNMENT((#1085));
#1085 = SURFACE_STYLE_USAGE(.BOTH.,#1086);
#1086 = SURFACE_SIDE_STYLE('',(#1087));
#1087 = SURFACE_STYLE_FILL_AREA(#1088);
#1088 = FILL_AREA_STYLE('',(#1089));
#1089 = FILL_AREA_STYLE_COLOUR('',#1012);
ENDSEC;
END-ISO-10303-21;
