ISO-10303-21;
HEADER;
FILE_DESCRIPTION(('FreeCAD Model'),'2;1');
FILE_NAME('Open CASCADE Shape Model','2025-12-19T18:56:25',(''),(''),
  'Open CASCADE STEP processor 7.8','FreeCAD','Unknown');
FILE_SCHEMA((
'AP242_MANAGED_MODEL_BASED_3D_ENGINEERING_MIM_LF. {1 0 10303 442 1 1 4 
}'));
ENDSEC;
DATA;
#1 = APPLICATION_PROTOCOL_DEFINITION('international standard',
  'ap242_managed_model_based_3d_engineering',2013,#2);
#2 = APPLICATION_CONTEXT('Managed model based 3d engineering');
#3 = SHAPE_DEFINITION_REPRESENTATION(#4,#10);
#4 = PRODUCT_DEFINITION_SHAPE('','',#5);
#5 = PRODUCT_DEFINITION('design','',#6,#9);
#6 = PRODUCT_DEFINITION_FORMATION('','',#7);
#7 = PRODUCT('Cut004','Cut004','',(#8));
#8 = PRODUCT_CONTEXT('',#2,'mechanical');
#9 = PRODUCT_DEFINITION_CONTEXT('part definition',#2,'design');
#10 = ADVANCED_BREP_SHAPE_REPRESENTATION('',(#11,#15),#440);
#11 = AXIS2_PLACEMENT_3D('',#12,#13,#14);
#12 = CARTESIAN_POINT('',(0.,0.,0.));
#13 = DIRECTION('',(0.,0.,1.));
#14 = DIRECTION('',(1.,0.,-0.));
#15 = MANIFOLD_SOLID_BREP('',#16);
#16 = CLOSED_SHELL('',(#17,#44,#69,#97,#129,#146,#224,#255,#279,#303,
    #320,#351,#375,#399,#416,#428));
#17 = ADVANCED_FACE('',(#18),#39,.T.);
#18 = FACE_BOUND('',#19,.T.);
#19 = EDGE_LOOP('',(#20,#31,#32));
#20 = ORIENTED_EDGE('',*,*,#21,.T.);
#21 = EDGE_CURVE('',#22,#24,#26,.T.);
#22 = VERTEX_POINT('',#23);
#23 = CARTESIAN_POINT('',(3.72,6.095124405192E-15,9.15));
#24 = VERTEX_POINT('',#25);
#25 = CARTESIAN_POINT('',(1.27,7.727152251391E-15,11.6));
#26 = CIRCLE('',#27,2.45);
#27 = AXIS2_PLACEMENT_3D('',#28,#29,#30);
#28 = CARTESIAN_POINT('',(1.27,6.095124405192E-15,9.15));
#29 = DIRECTION('',(0.,-1.,6.661338147751E-16));
#30 = DIRECTION('',(1.,0.,0.));
#31 = ORIENTED_EDGE('',*,*,#21,.F.);
#32 = ORIENTED_EDGE('',*,*,#33,.F.);
#33 = EDGE_CURVE('',#22,#22,#34,.T.);
#34 = CIRCLE('',#35,2.45);
#35 = AXIS2_PLACEMENT_3D('',#36,#37,#38);
#36 = CARTESIAN_POINT('',(1.27,4.063416270128E-15,9.15));
#37 = DIRECTION('',(-4.379057701015E-47,-4.440892098501E-16,-1.));
#38 = DIRECTION('',(1.,8.292686265567E-16,-3.68269249121E-31));
#39 = SPHERICAL_SURFACE('',#40,2.45);
#40 = AXIS2_PLACEMENT_3D('',#41,#42,#43);
#41 = CARTESIAN_POINT('',(1.27,6.095124405192E-15,9.15));
#42 = DIRECTION('',(0.,4.440892098501E-16,1.));
#43 = DIRECTION('',(1.,1.394807543452E-15,-6.194189798646E-31));
#44 = ADVANCED_FACE('',(#45),#64,.T.);
#45 = FACE_BOUND('',#46,.T.);
#46 = EDGE_LOOP('',(#47,#55,#56,#57));
#47 = ORIENTED_EDGE('',*,*,#48,.F.);
#48 = EDGE_CURVE('',#22,#49,#51,.T.);
#49 = VERTEX_POINT('',#50);
#50 = CARTESIAN_POINT('',(3.72,2.6645352591E-15,4.));
#51 = LINE('',#52,#53);
#52 = CARTESIAN_POINT('',(3.72,6.095124405192E-15,9.15));
#53 = VECTOR('',#54,1.);
#54 = DIRECTION('',(0.,-6.661338147751E-16,-1.));
#55 = ORIENTED_EDGE('',*,*,#33,.T.);
#56 = ORIENTED_EDGE('',*,*,#48,.T.);
#57 = ORIENTED_EDGE('',*,*,#58,.F.);
#58 = EDGE_CURVE('',#49,#49,#59,.T.);
#59 = CIRCLE('',#60,2.45);
#60 = AXIS2_PLACEMENT_3D('',#61,#62,#63);
#61 = CARTESIAN_POINT('',(1.27,1.7763568394E-15,4.));
#62 = DIRECTION('',(-2.189528850508E-47,-4.440892098501E-16,-1.));
#63 = DIRECTION('',(1.,3.625218039592E-16,-1.609920214737E-31));
#64 = CYLINDRICAL_SURFACE('',#65,2.45);
#65 = AXIS2_PLACEMENT_3D('',#66,#67,#68);
#66 = CARTESIAN_POINT('',(1.27,4.063416270128E-15,9.15));
#67 = DIRECTION('',(0.,-4.440892098501E-16,-1.));
#68 = DIRECTION('',(1.,8.292686265567E-16,-3.68269249121E-31));
#69 = ADVANCED_FACE('',(#70,#89),#92,.F.);
#70 = FACE_BOUND('',#71,.F.);
#71 = EDGE_LOOP('',(#72,#83));
#72 = ORIENTED_EDGE('',*,*,#73,.F.);
#73 = EDGE_CURVE('',#74,#76,#78,.T.);
#74 = VERTEX_POINT('',#75);
#75 = CARTESIAN_POINT('',(-1.229999999999,-1.46969384567,4.));
#76 = VERTEX_POINT('',#77);
#77 = CARTESIAN_POINT('',(-1.23,1.469693845669,4.));
#78 = CIRCLE('',#79,2.9);
#79 = AXIS2_PLACEMENT_3D('',#80,#81,#82);
#80 = CARTESIAN_POINT('',(1.27,0.,4.));
#81 = DIRECTION('',(0.,0.,1.));
#82 = DIRECTION('',(1.,0.,0.));
#83 = ORIENTED_EDGE('',*,*,#84,.T.);
#84 = EDGE_CURVE('',#74,#76,#85,.T.);
#85 = LINE('',#86,#87);
#86 = CARTESIAN_POINT('',(-1.229999999999,-1.46969384567,4.));
#87 = VECTOR('',#88,1.);
#88 = DIRECTION('',(0.,1.,0.));
#89 = FACE_BOUND('',#90,.F.);
#90 = EDGE_LOOP('',(#91));
#91 = ORIENTED_EDGE('',*,*,#58,.F.);
#92 = PLANE('',#93);
#93 = AXIS2_PLACEMENT_3D('',#94,#95,#96);
#94 = CARTESIAN_POINT('',(-1.229999999999,-1.469693845671,4.));
#95 = DIRECTION('',(0.,0.,-1.));
#96 = DIRECTION('',(-1.,0.,0.));
#97 = ADVANCED_FACE('',(#98),#124,.T.);
#98 = FACE_BOUND('',#99,.T.);
#99 = EDGE_LOOP('',(#100,#111,#117,#118));
#100 = ORIENTED_EDGE('',*,*,#101,.T.);
#101 = EDGE_CURVE('',#102,#104,#106,.T.);
#102 = VERTEX_POINT('',#103);
#103 = CARTESIAN_POINT('',(-1.229999999999,-1.46969384567,3.));
#104 = VERTEX_POINT('',#105);
#105 = CARTESIAN_POINT('',(-1.23,1.469693845669,3.));
#106 = CIRCLE('',#107,2.9);
#107 = AXIS2_PLACEMENT_3D('',#108,#109,#110);
#108 = CARTESIAN_POINT('',(1.27,0.,3.));
#109 = DIRECTION('',(0.,0.,1.));
#110 = DIRECTION('',(1.,0.,0.));
#111 = ORIENTED_EDGE('',*,*,#112,.T.);
#112 = EDGE_CURVE('',#104,#76,#113,.T.);
#113 = LINE('',#114,#115);
#114 = CARTESIAN_POINT('',(-1.23,1.469693845669,3.));
#115 = VECTOR('',#116,1.);
#116 = DIRECTION('',(0.,0.,1.));
#117 = ORIENTED_EDGE('',*,*,#73,.F.);
#118 = ORIENTED_EDGE('',*,*,#119,.F.);
#119 = EDGE_CURVE('',#102,#74,#120,.T.);
#120 = LINE('',#121,#122);
#121 = CARTESIAN_POINT('',(-1.229999999999,-1.46969384567,3.));
#122 = VECTOR('',#123,1.);
#123 = DIRECTION('',(0.,0.,1.));
#124 = CYLINDRICAL_SURFACE('',#125,2.9);
#125 = AXIS2_PLACEMENT_3D('',#126,#127,#128);
#126 = CARTESIAN_POINT('',(1.27,0.,3.));
#127 = DIRECTION('',(-0.,-0.,-1.));
#128 = DIRECTION('',(1.,0.,0.));
#129 = ADVANCED_FACE('',(#130),#141,.T.);
#130 = FACE_BOUND('',#131,.T.);
#131 = EDGE_LOOP('',(#132,#133,#134,#135));
#132 = ORIENTED_EDGE('',*,*,#119,.T.);
#133 = ORIENTED_EDGE('',*,*,#84,.T.);
#134 = ORIENTED_EDGE('',*,*,#112,.F.);
#135 = ORIENTED_EDGE('',*,*,#136,.F.);
#136 = EDGE_CURVE('',#102,#104,#137,.T.);
#137 = LINE('',#138,#139);
#138 = CARTESIAN_POINT('',(-1.229999999999,-1.46969384567,3.));
#139 = VECTOR('',#140,1.);
#140 = DIRECTION('',(0.,1.,0.));
#141 = PLANE('',#142);
#142 = AXIS2_PLACEMENT_3D('',#143,#144,#145);
#143 = CARTESIAN_POINT('',(-1.229999999999,-1.46969384567,3.));
#144 = DIRECTION('',(-1.,0.,0.));
#145 = DIRECTION('',(0.,1.,0.));
#146 = ADVANCED_FACE('',(#147,#151,#185),#219,.T.);
#147 = FACE_BOUND('',#148,.T.);
#148 = EDGE_LOOP('',(#149,#150));
#149 = ORIENTED_EDGE('',*,*,#101,.F.);
#150 = ORIENTED_EDGE('',*,*,#136,.T.);
#151 = FACE_BOUND('',#152,.T.);
#152 = EDGE_LOOP('',(#153,#163,#171,#179));
#153 = ORIENTED_EDGE('',*,*,#154,.T.);
#154 = EDGE_CURVE('',#155,#157,#159,.T.);
#155 = VERTEX_POINT('',#156);
#156 = CARTESIAN_POINT('',(-0.2,-0.2,3.));
#157 = VERTEX_POINT('',#158);
#158 = CARTESIAN_POINT('',(0.2,-0.2,3.));
#159 = LINE('',#160,#161);
#160 = CARTESIAN_POINT('',(-0.515,-0.2,3.));
#161 = VECTOR('',#162,1.);
#162 = DIRECTION('',(1.,0.,0.));
#163 = ORIENTED_EDGE('',*,*,#164,.T.);
#164 = EDGE_CURVE('',#157,#165,#167,.T.);
#165 = VERTEX_POINT('',#166);
#166 = CARTESIAN_POINT('',(0.2,0.2,3.));
#167 = LINE('',#168,#169);
#168 = CARTESIAN_POINT('',(0.2,-0.634846922835,3.));
#169 = VECTOR('',#170,1.);
#170 = DIRECTION('',(0.,1.,0.));
#171 = ORIENTED_EDGE('',*,*,#172,.T.);
#172 = EDGE_CURVE('',#165,#173,#175,.T.);
#173 = VERTEX_POINT('',#174);
#174 = CARTESIAN_POINT('',(-0.2,0.2,3.));
#175 = LINE('',#176,#177);
#176 = CARTESIAN_POINT('',(-0.715,0.2,3.));
#177 = VECTOR('',#178,1.);
#178 = DIRECTION('',(-1.,-0.,-0.));
#179 = ORIENTED_EDGE('',*,*,#180,.T.);
#180 = EDGE_CURVE('',#173,#155,#181,.T.);
#181 = LINE('',#182,#183);
#182 = CARTESIAN_POINT('',(-0.2,-0.834846922835,3.));
#183 = VECTOR('',#184,1.);
#184 = DIRECTION('',(0.,-1.,0.));
#185 = FACE_BOUND('',#186,.T.);
#186 = EDGE_LOOP('',(#187,#197,#205,#213));
#187 = ORIENTED_EDGE('',*,*,#188,.T.);
#188 = EDGE_CURVE('',#189,#191,#193,.T.);
#189 = VERTEX_POINT('',#190);
#190 = CARTESIAN_POINT('',(2.34,0.2,3.));
#191 = VERTEX_POINT('',#192);
#192 = CARTESIAN_POINT('',(2.34,-0.2,3.));
#193 = LINE('',#194,#195);
#194 = CARTESIAN_POINT('',(2.34,-0.834846922835,3.));
#195 = VECTOR('',#196,1.);
#196 = DIRECTION('',(0.,-1.,0.));
#197 = ORIENTED_EDGE('',*,*,#198,.T.);
#198 = EDGE_CURVE('',#191,#199,#201,.T.);
#199 = VERTEX_POINT('',#200);
#200 = CARTESIAN_POINT('',(2.74,-0.2,3.));
#201 = LINE('',#202,#203);
#202 = CARTESIAN_POINT('',(0.755,-0.2,3.));
#203 = VECTOR('',#204,1.);
#204 = DIRECTION('',(1.,0.,0.));
#205 = ORIENTED_EDGE('',*,*,#206,.T.);
#206 = EDGE_CURVE('',#199,#207,#209,.T.);
#207 = VERTEX_POINT('',#208);
#208 = CARTESIAN_POINT('',(2.74,0.2,3.));
#209 = LINE('',#210,#211);
#210 = CARTESIAN_POINT('',(2.74,-0.634846922835,3.));
#211 = VECTOR('',#212,1.);
#212 = DIRECTION('',(0.,1.,0.));
#213 = ORIENTED_EDGE('',*,*,#214,.T.);
#214 = EDGE_CURVE('',#207,#189,#215,.T.);
#215 = LINE('',#216,#217);
#216 = CARTESIAN_POINT('',(0.555,0.2,3.));
#217 = VECTOR('',#218,1.);
#218 = DIRECTION('',(-1.,-0.,-0.));
#219 = PLANE('',#220);
#220 = AXIS2_PLACEMENT_3D('',#221,#222,#223);
#221 = CARTESIAN_POINT('',(-1.229999999999,-1.469693845671,3.));
#222 = DIRECTION('',(0.,0.,-1.));
#223 = DIRECTION('',(-1.,0.,0.));
#224 = ADVANCED_FACE('',(#225),#250,.F.);
#225 = FACE_BOUND('',#226,.F.);
#226 = EDGE_LOOP('',(#227,#235,#236,#244));
#227 = ORIENTED_EDGE('',*,*,#228,.F.);
#228 = EDGE_CURVE('',#155,#229,#231,.T.);
#229 = VERTEX_POINT('',#230);
#230 = CARTESIAN_POINT('',(-0.2,-0.2,1.));
#231 = LINE('',#232,#233);
#232 = CARTESIAN_POINT('',(-0.2,-0.2,3.5));
#233 = VECTOR('',#234,1.);
#234 = DIRECTION('',(-0.,-0.,-1.));
#235 = ORIENTED_EDGE('',*,*,#154,.T.);
#236 = ORIENTED_EDGE('',*,*,#237,.T.);
#237 = EDGE_CURVE('',#157,#238,#240,.T.);
#238 = VERTEX_POINT('',#239);
#239 = CARTESIAN_POINT('',(0.2,-0.2,1.));
#240 = LINE('',#241,#242);
#241 = CARTESIAN_POINT('',(0.2,-0.2,3.5));
#242 = VECTOR('',#243,1.);
#243 = DIRECTION('',(-0.,-0.,-1.));
#244 = ORIENTED_EDGE('',*,*,#245,.T.);
#245 = EDGE_CURVE('',#238,#229,#246,.T.);
#246 = LINE('',#247,#248);
#247 = CARTESIAN_POINT('',(-1.4,-0.2,1.));
#248 = VECTOR('',#249,1.);
#249 = DIRECTION('',(-1.,0.,-0.));
#250 = PLANE('',#251);
#251 = AXIS2_PLACEMENT_3D('',#252,#253,#254);
#252 = CARTESIAN_POINT('',(0.2,-0.2,3.5));
#253 = DIRECTION('',(0.,1.,0.));
#254 = DIRECTION('',(-1.,0.,0.));
#255 = ADVANCED_FACE('',(#256),#274,.F.);
#256 = FACE_BOUND('',#257,.F.);
#257 = EDGE_LOOP('',(#258,#259,#260,#268));
#258 = ORIENTED_EDGE('',*,*,#237,.F.);
#259 = ORIENTED_EDGE('',*,*,#164,.T.);
#260 = ORIENTED_EDGE('',*,*,#261,.T.);
#261 = EDGE_CURVE('',#165,#262,#264,.T.);
#262 = VERTEX_POINT('',#263);
#263 = CARTESIAN_POINT('',(0.2,0.2,1.));
#264 = LINE('',#265,#266);
#265 = CARTESIAN_POINT('',(0.2,0.2,3.5));
#266 = VECTOR('',#267,1.);
#267 = DIRECTION('',(-0.,-0.,-1.));
#268 = ORIENTED_EDGE('',*,*,#269,.T.);
#269 = EDGE_CURVE('',#262,#238,#270,.T.);
#270 = LINE('',#271,#272);
#271 = CARTESIAN_POINT('',(0.2,2.6,1.));
#272 = VECTOR('',#273,1.);
#273 = DIRECTION('',(0.,-1.,1.224646799147E-16));
#274 = PLANE('',#275);
#275 = AXIS2_PLACEMENT_3D('',#276,#277,#278);
#276 = CARTESIAN_POINT('',(0.2,0.2,3.5));
#277 = DIRECTION('',(-1.,0.,0.));
#278 = DIRECTION('',(0.,-1.,0.));
#279 = ADVANCED_FACE('',(#280),#298,.F.);
#280 = FACE_BOUND('',#281,.F.);
#281 = EDGE_LOOP('',(#282,#283,#284,#292));
#282 = ORIENTED_EDGE('',*,*,#261,.F.);
#283 = ORIENTED_EDGE('',*,*,#172,.T.);
#284 = ORIENTED_EDGE('',*,*,#285,.T.);
#285 = EDGE_CURVE('',#173,#286,#288,.T.);
#286 = VERTEX_POINT('',#287);
#287 = CARTESIAN_POINT('',(-0.2,0.2,1.));
#288 = LINE('',#289,#290);
#289 = CARTESIAN_POINT('',(-0.2,0.2,3.5));
#290 = VECTOR('',#291,1.);
#291 = DIRECTION('',(-0.,-0.,-1.));
#292 = ORIENTED_EDGE('',*,*,#293,.T.);
#293 = EDGE_CURVE('',#286,#262,#294,.T.);
#294 = LINE('',#295,#296);
#295 = CARTESIAN_POINT('',(-1.6,0.2,1.));
#296 = VECTOR('',#297,1.);
#297 = DIRECTION('',(1.,0.,0.));
#298 = PLANE('',#299);
#299 = AXIS2_PLACEMENT_3D('',#300,#301,#302);
#300 = CARTESIAN_POINT('',(-0.2,0.2,3.5));
#301 = DIRECTION('',(0.,-1.,0.));
#302 = DIRECTION('',(1.,0.,0.));
#303 = ADVANCED_FACE('',(#304),#315,.F.);
#304 = FACE_BOUND('',#305,.F.);
#305 = EDGE_LOOP('',(#306,#307,#308,#309));
#306 = ORIENTED_EDGE('',*,*,#285,.F.);
#307 = ORIENTED_EDGE('',*,*,#180,.T.);
#308 = ORIENTED_EDGE('',*,*,#228,.T.);
#309 = ORIENTED_EDGE('',*,*,#310,.T.);
#310 = EDGE_CURVE('',#229,#286,#311,.T.);
#311 = LINE('',#312,#313);
#312 = CARTESIAN_POINT('',(-0.2,2.4,1.));
#313 = VECTOR('',#314,1.);
#314 = DIRECTION('',(0.,1.,-1.224646799147E-16));
#315 = PLANE('',#316);
#316 = AXIS2_PLACEMENT_3D('',#317,#318,#319);
#317 = CARTESIAN_POINT('',(-0.2,-0.2,3.5));
#318 = DIRECTION('',(1.,0.,0.));
#319 = DIRECTION('',(0.,1.,0.));
#320 = ADVANCED_FACE('',(#321),#346,.F.);
#321 = FACE_BOUND('',#322,.F.);
#322 = EDGE_LOOP('',(#323,#331,#332,#340));
#323 = ORIENTED_EDGE('',*,*,#324,.F.);
#324 = EDGE_CURVE('',#189,#325,#327,.T.);
#325 = VERTEX_POINT('',#326);
#326 = CARTESIAN_POINT('',(2.34,0.2,1.));
#327 = LINE('',#328,#329);
#328 = CARTESIAN_POINT('',(2.34,0.2,3.5));
#329 = VECTOR('',#330,1.);
#330 = DIRECTION('',(-0.,-0.,-1.));
#331 = ORIENTED_EDGE('',*,*,#188,.T.);
#332 = ORIENTED_EDGE('',*,*,#333,.T.);
#333 = EDGE_CURVE('',#191,#334,#336,.T.);
#334 = VERTEX_POINT('',#335);
#335 = CARTESIAN_POINT('',(2.34,-0.2,1.));
#336 = LINE('',#337,#338);
#337 = CARTESIAN_POINT('',(2.34,-0.2,3.5));
#338 = VECTOR('',#339,1.);
#339 = DIRECTION('',(-0.,-0.,-1.));
#340 = ORIENTED_EDGE('',*,*,#341,.T.);
#341 = EDGE_CURVE('',#334,#325,#342,.T.);
#342 = LINE('',#343,#344);
#343 = CARTESIAN_POINT('',(2.34,2.4,1.));
#344 = VECTOR('',#345,1.);
#345 = DIRECTION('',(0.,1.,-1.224646799147E-16));
#346 = PLANE('',#347);
#347 = AXIS2_PLACEMENT_3D('',#348,#349,#350);
#348 = CARTESIAN_POINT('',(2.34,-0.2,3.5));
#349 = DIRECTION('',(1.,0.,0.));
#350 = DIRECTION('',(0.,1.,0.));
#351 = ADVANCED_FACE('',(#352),#370,.F.);
#352 = FACE_BOUND('',#353,.F.);
#353 = EDGE_LOOP('',(#354,#355,#356,#364));
#354 = ORIENTED_EDGE('',*,*,#333,.F.);
#355 = ORIENTED_EDGE('',*,*,#198,.T.);
#356 = ORIENTED_EDGE('',*,*,#357,.T.);
#357 = EDGE_CURVE('',#199,#358,#360,.T.);
#358 = VERTEX_POINT('',#359);
#359 = CARTESIAN_POINT('',(2.74,-0.2,1.));
#360 = LINE('',#361,#362);
#361 = CARTESIAN_POINT('',(2.74,-0.2,3.5));
#362 = VECTOR('',#363,1.);
#363 = DIRECTION('',(-0.,-0.,-1.));
#364 = ORIENTED_EDGE('',*,*,#365,.T.);
#365 = EDGE_CURVE('',#358,#334,#366,.T.);
#366 = LINE('',#367,#368);
#367 = CARTESIAN_POINT('',(-0.13,-0.2,1.));
#368 = VECTOR('',#369,1.);
#369 = DIRECTION('',(-1.,0.,-0.));
#370 = PLANE('',#371);
#371 = AXIS2_PLACEMENT_3D('',#372,#373,#374);
#372 = CARTESIAN_POINT('',(2.74,-0.2,3.5));
#373 = DIRECTION('',(0.,1.,0.));
#374 = DIRECTION('',(-1.,0.,0.));
#375 = ADVANCED_FACE('',(#376),#394,.F.);
#376 = FACE_BOUND('',#377,.F.);
#377 = EDGE_LOOP('',(#378,#379,#380,#388));
#378 = ORIENTED_EDGE('',*,*,#357,.F.);
#379 = ORIENTED_EDGE('',*,*,#206,.T.);
#380 = ORIENTED_EDGE('',*,*,#381,.T.);
#381 = EDGE_CURVE('',#207,#382,#384,.T.);
#382 = VERTEX_POINT('',#383);
#383 = CARTESIAN_POINT('',(2.74,0.2,1.));
#384 = LINE('',#385,#386);
#385 = CARTESIAN_POINT('',(2.74,0.2,3.5));
#386 = VECTOR('',#387,1.);
#387 = DIRECTION('',(-0.,-0.,-1.));
#388 = ORIENTED_EDGE('',*,*,#389,.T.);
#389 = EDGE_CURVE('',#382,#358,#390,.T.);
#390 = LINE('',#391,#392);
#391 = CARTESIAN_POINT('',(2.74,2.6,1.));
#392 = VECTOR('',#393,1.);
#393 = DIRECTION('',(0.,-1.,1.224646799147E-16));
#394 = PLANE('',#395);
#395 = AXIS2_PLACEMENT_3D('',#396,#397,#398);
#396 = CARTESIAN_POINT('',(2.74,0.2,3.5));
#397 = DIRECTION('',(-1.,0.,0.));
#398 = DIRECTION('',(0.,-1.,0.));
#399 = ADVANCED_FACE('',(#400),#411,.F.);
#400 = FACE_BOUND('',#401,.F.);
#401 = EDGE_LOOP('',(#402,#403,#404,#405));
#402 = ORIENTED_EDGE('',*,*,#381,.F.);
#403 = ORIENTED_EDGE('',*,*,#214,.T.);
#404 = ORIENTED_EDGE('',*,*,#324,.T.);
#405 = ORIENTED_EDGE('',*,*,#406,.T.);
#406 = EDGE_CURVE('',#325,#382,#407,.T.);
#407 = LINE('',#408,#409);
#408 = CARTESIAN_POINT('',(-0.33,0.2,1.));
#409 = VECTOR('',#410,1.);
#410 = DIRECTION('',(1.,0.,0.));
#411 = PLANE('',#412);
#412 = AXIS2_PLACEMENT_3D('',#413,#414,#415);
#413 = CARTESIAN_POINT('',(2.34,0.2,3.5));
#414 = DIRECTION('',(0.,-1.,0.));
#415 = DIRECTION('',(1.,0.,0.));
#416 = ADVANCED_FACE('',(#417),#423,.T.);
#417 = FACE_BOUND('',#418,.T.);
#418 = EDGE_LOOP('',(#419,#420,#421,#422));
#419 = ORIENTED_EDGE('',*,*,#269,.T.);
#420 = ORIENTED_EDGE('',*,*,#245,.T.);
#421 = ORIENTED_EDGE('',*,*,#310,.T.);
#422 = ORIENTED_EDGE('',*,*,#293,.T.);
#423 = PLANE('',#424);
#424 = AXIS2_PLACEMENT_3D('',#425,#426,#427);
#425 = CARTESIAN_POINT('',(-3.,5.,1.));
#426 = DIRECTION('',(0.,-1.224646799147E-16,-1.));
#427 = DIRECTION('',(1.,0.,0.));
#428 = ADVANCED_FACE('',(#429),#435,.T.);
#429 = FACE_BOUND('',#430,.T.);
#430 = EDGE_LOOP('',(#431,#432,#433,#434));
#431 = ORIENTED_EDGE('',*,*,#365,.T.);
#432 = ORIENTED_EDGE('',*,*,#341,.T.);
#433 = ORIENTED_EDGE('',*,*,#406,.T.);
#434 = ORIENTED_EDGE('',*,*,#389,.T.);
#435 = PLANE('',#436);
#436 = AXIS2_PLACEMENT_3D('',#437,#438,#439);
#437 = CARTESIAN_POINT('',(-3.,5.,1.));
#438 = DIRECTION('',(0.,-1.224646799147E-16,-1.));
#439 = DIRECTION('',(1.,0.,0.));
#440 = ( GEOMETRIC_REPRESENTATION_CONTEXT(3) 
GLOBAL_UNCERTAINTY_ASSIGNED_CONTEXT((#444)) GLOBAL_UNIT_ASSIGNED_CONTEXT
((#441,#442,#443)) REPRESENTATION_CONTEXT('Context #1',
  '3D Context with UNIT and UNCERTAINTY') );
#441 = ( LENGTH_UNIT() NAMED_UNIT(*) SI_UNIT(.MILLI.,.METRE.) );
#442 = ( NAMED_UNIT(*) PLANE_ANGLE_UNIT() SI_UNIT($,.RADIAN.) );
#443 = ( NAMED_UNIT(*) SI_UNIT($,.STERADIAN.) SOLID_ANGLE_UNIT() );
#444 = UNCERTAINTY_MEASURE_WITH_UNIT(LENGTH_MEASURE(5.E-06),#441,
  'distance_accuracy_value','confusion accuracy');
#445 = PRODUCT_RELATED_PRODUCT_CATEGORY('part',$,(#7));
#446 = MECHANICAL_DESIGN_GEOMETRIC_PRESENTATION_REPRESENTATION('',(#447,
    #458,#466,#473,#480,#487,#494,#501,#508,#515,#522),#440);
#447 = STYLED_ITEM('color',(#448),#15);
#448 = PRESENTATION_STYLE_ASSIGNMENT((#449,#455));
#449 = SURFACE_STYLE_USAGE(.BOTH.,#450);
#450 = SURFACE_SIDE_STYLE('',(#451));
#451 = SURFACE_STYLE_FILL_AREA(#452);
#452 = FILL_AREA_STYLE('',(#453));
#453 = FILL_AREA_STYLE_COLOUR('',#454);
#454 = COLOUR_RGB('',9.999999991362E-02,0.699999984889,
  5.000000142576E-02);
#455 = CURVE_STYLE('',#456,POSITIVE_LENGTH_MEASURE(0.1),#457);
#456 = DRAUGHTING_PRE_DEFINED_CURVE_FONT('continuous');
#457 = COLOUR_RGB('',9.803921802644E-02,9.803921802644E-02,
  9.803921802644E-02);
#458 = OVER_RIDING_STYLED_ITEM('overriding color',(#459),#224,#447);
#459 = PRESENTATION_STYLE_ASSIGNMENT((#460));
#460 = SURFACE_STYLE_USAGE(.BOTH.,#461);
#461 = SURFACE_SIDE_STYLE('',(#462));
#462 = SURFACE_STYLE_FILL_AREA(#463);
#463 = FILL_AREA_STYLE('',(#464));
#464 = FILL_AREA_STYLE_COLOUR('',#465);
#465 = COLOUR_RGB('',0.823999987314,0.819999987296,0.781000009244);
#466 = OVER_RIDING_STYLED_ITEM('overriding color',(#467),#255,#447);
#467 = PRESENTATION_STYLE_ASSIGNMENT((#468));
#468 = SURFACE_STYLE_USAGE(.BOTH.,#469);
#469 = SURFACE_SIDE_STYLE('',(#470));
#470 = SURFACE_STYLE_FILL_AREA(#471);
#471 = FILL_AREA_STYLE('',(#472));
#472 = FILL_AREA_STYLE_COLOUR('',#465);
#473 = OVER_RIDING_STYLED_ITEM('overriding color',(#474),#279,#447);
#474 = PRESENTATION_STYLE_ASSIGNMENT((#475));
#475 = SURFACE_STYLE_USAGE(.BOTH.,#476);
#476 = SURFACE_SIDE_STYLE('',(#477));
#477 = SURFACE_STYLE_FILL_AREA(#478);
#478 = FILL_AREA_STYLE('',(#479));
#479 = FILL_AREA_STYLE_COLOUR('',#465);
#480 = OVER_RIDING_STYLED_ITEM('overriding color',(#481),#303,#447);
#481 = PRESENTATION_STYLE_ASSIGNMENT((#482));
#482 = SURFACE_STYLE_USAGE(.BOTH.,#483);
#483 = SURFACE_SIDE_STYLE('',(#484));
#484 = SURFACE_STYLE_FILL_AREA(#485);
#485 = FILL_AREA_STYLE('',(#486));
#486 = FILL_AREA_STYLE_COLOUR('',#465);
#487 = OVER_RIDING_STYLED_ITEM('overriding color',(#488),#320,#447);
#488 = PRESENTATION_STYLE_ASSIGNMENT((#489));
#489 = SURFACE_STYLE_USAGE(.BOTH.,#490);
#490 = SURFACE_SIDE_STYLE('',(#491));
#491 = SURFACE_STYLE_FILL_AREA(#492);
#492 = FILL_AREA_STYLE('',(#493));
#493 = FILL_AREA_STYLE_COLOUR('',#465);
#494 = OVER_RIDING_STYLED_ITEM('overriding color',(#495),#351,#447);
#495 = PRESENTATION_STYLE_ASSIGNMENT((#496));
#496 = SURFACE_STYLE_USAGE(.BOTH.,#497);
#497 = SURFACE_SIDE_STYLE('',(#498));
#498 = SURFACE_STYLE_FILL_AREA(#499);
#499 = FILL_AREA_STYLE('',(#500));
#500 = FILL_AREA_STYLE_COLOUR('',#465);
#501 = OVER_RIDING_STYLED_ITEM('overriding color',(#502),#375,#447);
#502 = PRESENTATION_STYLE_ASSIGNMENT((#503));
#503 = SURFACE_STYLE_USAGE(.BOTH.,#504);
#504 = SURFACE_SIDE_STYLE('',(#505));
#505 = SURFACE_STYLE_FILL_AREA(#506);
#506 = FILL_AREA_STYLE('',(#507));
#507 = FILL_AREA_STYLE_COLOUR('',#465);
#508 = OVER_RIDING_STYLED_ITEM('overriding color',(#509),#399,#447);
#509 = PRESENTATION_STYLE_ASSIGNMENT((#510));
#510 = SURFACE_STYLE_USAGE(.BOTH.,#511);
#511 = SURFACE_SIDE_STYLE('',(#512));
#512 = SURFACE_STYLE_FILL_AREA(#513);
#513 = FILL_AREA_STYLE('',(#514));
#514 = FILL_AREA_STYLE_COLOUR('',#465);
#515 = OVER_RIDING_STYLED_ITEM('overriding color',(#516),#416,#447);
#516 = PRESENTATION_STYLE_ASSIGNMENT((#517));
#517 = SURFACE_STYLE_USAGE(.BOTH.,#518);
#518 = SURFACE_SIDE_STYLE('',(#519));
#519 = SURFACE_STYLE_FILL_AREA(#520);
#520 = FILL_AREA_STYLE('',(#521));
#521 = FILL_AREA_STYLE_COLOUR('',#465);
#522 = OVER_RIDING_STYLED_ITEM('overriding color',(#523),#428,#447);
#523 = PRESENTATION_STYLE_ASSIGNMENT((#524));
#524 = SURFACE_STYLE_USAGE(.BOTH.,#525);
#525 = SURFACE_SIDE_STYLE('',(#526));
#526 = SURFACE_STYLE_FILL_AREA(#527);
#527 = FILL_AREA_STYLE('',(#528));
#528 = FILL_AREA_STYLE_COLOUR('',#465);
ENDSEC;
END-ISO-10303-21;
